<?xml version="1.0" encoding="utf-8"?>
<!-- Generator: Adobe Illustrator 26.0.1, SVG Export Plug-In . SVG Version: 6.00 Build 0)  -->
<svg version="1.1" id="Capa_1" xmlns="http://www.w3.org/2000/svg" xmlns:xlink="http://www.w3.org/1999/xlink" x="0px" y="0px"
	 viewBox="0 0 307.9 81.6" style="enable-background:new 0 0 307.9 81.6;" xml:space="preserve">
<style type="text/css">
	.st0{fill:#1D1D1B;}
	.st1{fill:#FFFFFF;}
	.st2{fill-rule:evenodd;clip-rule:evenodd;}
	.st3{stroke:#1D1D1B;stroke-width:2;stroke-linecap:round;stroke-miterlimit:10;}
	.st4{clip-path:url(#SVGID_00000008830922984926753340000013807926784414482838_);fill:#FFFFFF;}
	.st5{fill:none;}
	.st6{clip-path:url(#SVGID_00000069386310335545077320000002842086973433543600_);fill:#FFFFFF;}
	.st7{clip-path:url(#SVGID_00000174564927216291793470000001434894881850646704_);fill:#FFFFFF;}
	.st8{clip-path:url(#SVGID_00000170271258908204947170000016243928719922985887_);fill:#FFFFFF;}
	.st9{fill:#B2B2B2;}
	.st10{fill:#EDEDED;}
	.st11{fill:#EDEDED;stroke:#DADADA;stroke-width:2.7416;stroke-linecap:round;stroke-linejoin:round;stroke-miterlimit:10;}
	.st12{fill:none;stroke:#DADADA;stroke-width:2.7416;stroke-linecap:round;stroke-linejoin:round;stroke-miterlimit:10;}
	.st13{fill:none;stroke:#DADADA;stroke-width:5.6327;stroke-linecap:round;stroke-linejoin:round;stroke-miterlimit:10;}
	.st14{clip-path:url(#SVGID_00000152257057899603790660000005078739661023766973_);fill:#FFFFFF;}
	.st15{fill:none;stroke:#FFFFFF;stroke-width:3;stroke-linecap:round;stroke-miterlimit:10;}
	.st16{clip-path:url(#SVGID_00000032620323255765701590000005868699897597730700_);fill:#FFFFFF;}
	.st17{fill:none;stroke:#B2B2B2;stroke-width:2;stroke-linecap:round;stroke-miterlimit:10;}
	.st18{fill:#00AEEF;}
	.st19{fill:#231F20;}
	.st20{clip-path:url(#SVGID_00000116933401536978938870000000053808942470938787_);fill:#FFFFFF;}
	.st21{fill:#DADADA;}
	.st22{fill:#44C791;}
	.st23{fill-rule:evenodd;clip-rule:evenodd;fill:#44C791;}
	.st24{fill:#1C284C;}
	.st25{fill:#3C0066;}
	.st26{fill:url(#SVGID_00000068674770952930474500000009984705461756208821_);}
	.st27{fill:url(#SVGID_00000051359525591892855090000008243327902149997697_);}
	.st28{fill:url(#SVGID_00000102515745112934217820000012023711941963543427_);}
	.st29{fill:url(#SVGID_00000107567130525768546250000008923137106003488946_);}
	.st30{fill:url(#SVGID_00000115492212382362015480000009796425042481685640_);}
	.st31{fill:url(#SVGID_00000020359403656878395550000008050365076900747139_);}
	.st32{fill:url(#SVGID_00000139987381152883001480000016124589718817015208_);}
	.st33{opacity:0.18;}
	.st34{opacity:0.11;}
	.st35{opacity:0.13;}
	.st36{fill:url(#SVGID_00000121281706479860792060000009589450433536924060_);}
	.st37{fill:url(#SVGID_00000085212402174039185400000014377700179785667225_);}
	.st38{opacity:0.55;fill:#FFFFFF;}
	.st39{fill:url(#SVGID_00000029046942976324178590000004199551109067375775_);}
	.st40{fill:url(#SVGID_00000057123217039302157880000017284981591330557060_);}
	.st41{fill:url(#SVGID_00000064350399029621253930000017547860182521831306_);}
	.st42{fill:url(#SVGID_00000060023897786188618050000013893771367014189187_);}
	.st43{fill:url(#SVGID_00000040548342540814768540000016517779920519833249_);}
	.st44{fill:url(#SVGID_00000120553007088051869340000000479100272407145108_);}
	.st45{opacity:0.54;}
	.st46{opacity:0.47;clip-path:url(#SVGID_00000054254034647013492410000000371014870849093823_);}
	.st47{fill:url(#SVGID_00000127029803453291251220000016671976874519985336_);}
	.st48{fill:url(#SVGID_00000046336207499218304250000009104292072255345061_);}
	.st49{fill:url(#SVGID_00000060718028503410435870000001111766478084307083_);}
	.st50{fill:url(#SVGID_00000119105149583691955190000000915752081373168516_);}
	.st51{fill:url(#SVGID_00000148631727238770496350000017262092093710514872_);}
	.st52{fill:url(#SVGID_00000067957325937924800960000013484032131414029722_);}
	.st53{opacity:0.22;clip-path:url(#SVGID_00000056409583940382036480000011226565533794157958_);}
	.st54{fill:url(#SVGID_00000096041560797121511290000014827564043736991921_);}
	.st55{fill:url(#SVGID_00000057114741669827405120000006347024000111993260_);}
	.st56{fill:url(#SVGID_00000014600800503035710820000003787046848651533953_);}
	.st57{fill:url(#SVGID_00000075153828855969582330000007096647857128898457_);}
	.st58{opacity:0.49;fill:url(#SVGID_00000142865628451885206730000017785096500723431611_);}
	.st59{fill:url(#SVGID_00000097490769802376326410000015794745737299257014_);}
	.st60{fill:url(#SVGID_00000128477873291595800440000014007718269023515059_);}
	.st61{fill:url(#SVGID_00000079487702050887466550000001659654995343289231_);}
	.st62{fill:url(#SVGID_00000146471839114439333730000000089295128981010867_);}
	.st63{opacity:0.49;fill:url(#SVGID_00000057147281637607892630000002418545057209035692_);}
	.st64{opacity:0.39;}
	.st65{fill:#7D0D99;}
	.st66{fill:url(#SVGID_00000091707090411786527980000000349202712834459800_);}
	.st67{fill:url(#SVGID_00000049936481171235430130000017816267669828326813_);}
	.st68{fill:url(#SVGID_00000158715886306805603670000001264660558454665396_);}
	.st69{fill:url(#SVGID_00000023264364556250953620000009497602997299286438_);}
	.st70{filter:url(#Adobe_OpacityMaskFilter);}
	.st71{opacity:0.42;mask:url(#SVGID_00000150085839966889390400000017612269173094782131_);}
	.st72{fill:#020202;}
	.st73{fill:url(#SVGID_00000005239904898375346510000006294091842874911406_);}
	.st74{fill:url(#SVGID_00000003085492922381883010000004418594246139717802_);}
	.st75{filter:url(#Adobe_OpacityMaskFilter_00000176722599522770692080000003981632491059291031_);}
	.st76{opacity:0.42;mask:url(#SVGID_00000171719144456270760460000010756671455307028888_);}
	.st77{fill:url(#SVGID_00000100364272586747142980000001781846594413623195_);}
	.st78{fill:url(#SVGID_00000114768599841909470340000004670529653644982401_);}
	.st79{fill:url(#SVGID_00000117670134009507564430000008620037137894385544_);}
	.st80{fill:url(#SVGID_00000160189177509097262800000010776910220469033600_);}
	.st81{fill:url(#SVGID_00000114059973652851373690000007081275263478143883_);}
	.st82{fill:url(#SVGID_00000081611591491008282010000006951255084237684360_);}
	.st83{opacity:0.62;fill:#FFFFFF;}
	.st84{fill:none;stroke:#1F1C20;stroke-width:1.1454;stroke-linecap:round;stroke-linejoin:round;stroke-miterlimit:10;}
	
		.st85{clip-path:url(#SVGID_00000064340105388523501970000008084483528735063988_);fill:url(#SVGID_00000038411163302222152740000018222556395803388607_);}
	
		.st86{clip-path:url(#SVGID_00000064340105388523501970000008084483528735063988_);fill:url(#SVGID_00000175307404870078437240000016371578272992211331_);}
	.st87{opacity:0.29;}
	.st88{fill:url(#SVGID_00000073002642255588790870000012106105685727240588_);}
	.st89{fill:url(#SVGID_00000083088240408050927790000004020824293181214398_);}
	.st90{fill:url(#SVGID_00000050655258898036562590000011811201251118558910_);}
	.st91{fill:url(#SVGID_00000171695829488966195760000013340969724399724463_);}
	.st92{fill:url(#SVGID_00000176721510798524957560000017015222173954615968_);}
	.st93{fill:url(#SVGID_00000001625821830735250640000005343470997890987414_);}
	.st94{fill:url(#SVGID_00000023256869122059874950000009115746931832849334_);}
	.st95{fill:url(#SVGID_00000133495308374295052730000009688344614371049091_);}
	.st96{fill:url(#SVGID_00000014618157578421416550000007513464358224904342_);}
	.st97{fill:url(#SVGID_00000067210827838803783920000015450816982290024124_);}
	.st98{fill:url(#SVGID_00000147202938912841153690000014263409973193720449_);}
	.st99{fill:url(#SVGID_00000003071424309032924800000012266185337867786142_);}
	.st100{fill:#0A1E25;}
	.st101{fill:none;stroke:#000000;stroke-width:2.8648;stroke-linecap:round;stroke-linejoin:round;stroke-miterlimit:10;}
	.st102{fill:#575756;stroke:#575756;stroke-miterlimit:10;}
	.st103{fill:none;stroke:#48FF11;stroke-width:3;stroke-miterlimit:10;}
</style>
<g>
	<g>
		<path class="st18" d="M199.6,2.6H145c-8.3,0-15.1,6.7-15.1,15.1v33.9c0,8.3,6.7,15.1,15.1,15.1h15.9l10.6,11.7l10.6-11.7h17.5
			c8.3,0,15.1-6.8,15.1-15.1V17.7C214.6,9.4,207.9,2.6,199.6,2.6z"/>
		<g>
			<rect x="136.2" y="15.9" class="st1" width="7.2" height="37.2"/>
			<rect x="147.3" y="25" class="st1" width="7.2" height="28"/>
			<polygon class="st1" points="182.8,23.5 174,23.5 165.7,34.6 165.7,15.9 158.5,15.9 158.5,53.1 165.7,53.1 165.7,40.9 
				175.2,53.1 184.4,53.1 172,37.5 			"/>
			<path class="st1" d="M195.3,22.5c-8.4,0-15.2,7-15.2,15.7c0,8.6,6.8,15.6,15.1,15.6c5.7,0,10.7-3.1,13.3-8.3l0.8-1.5h-7.8
				l-0.3,0.4c-1.5,1.7-3.5,2.6-5.7,2.6c-3.5,0-6.3-2-7.6-5.4H210l0.1-1c0.1-1.2,0.2-2.1,0.2-2.7C210.3,29.4,203.6,22.5,195.3,22.5z
				 M187.6,35.5c0.3-1.6,0.7-2.4,1.7-3.5c1.4-1.6,3.7-2.6,6-2.6c3.7,0,6.9,2.6,7.6,6.1H187.6z"/>
			<rect x="147.3" y="15.8" class="st1" width="7.3" height="7.3"/>
		</g>
		<g>
			<g>
				<path class="st19" d="M32.4,41.9L32.4,41.9L32,42.3c-2.6,3-5.7,4.5-9.2,4.5c-6.7,0-12.4-6-12.4-13.2c0-7.2,5.6-13,12.5-13
					c3.7,0,6.7,1.5,9.5,4.8l0.3,0.3l5.3-5.3c-3.8-4.5-9.1-6.9-15.2-6.9c-11,0-19.9,9-19.9,20c0,11.1,8.9,20.2,19.8,20.2
					c5.9,0,11.2-2.4,15-6.6L32.4,41.9z"/>
				<path class="st19" d="M52.9,30.1v-7.3l-1.1,0c-2.5,0.1-4.4,0.6-6,1.8v-1.1h-6.9v29.6h7.2V37c0-4.6,1.6-6.5,5.8-6.8L52.9,30.1z"
					/>
				<path class="st19" d="M107.7,25.7c-2.4-1.8-5.7-2.9-8.9-2.9c-8.3,0-14.7,6.7-14.7,15.3c0,8.9,6.5,15.7,15.2,15.7
					c3.6,0,6.4-1,8.8-3v2.3h6.9V15.9h-7.2V25.7z M99.5,47c-4.6,0-8.3-3.9-8.3-8.8c0-4.9,3.5-8.7,8.2-8.7c4.8,0,8.5,3.7,8.5,8.3
					C108,43.1,104.3,47,99.5,47z"/>
				<rect x="118.8" y="25" class="st19" width="7.2" height="28"/>
				<path class="st19" d="M249.4,22.8c-4,0-6.9,1.2-9,3.7c-1.8-2.3-5.1-3.7-8.6-3.7c-2.8,0-5,0.7-6.9,2.1v-1.4h-6.9v29.6h7.2V36.7
					c0-3.3,0.4-4.3,1.4-5.4c1-1.1,2.6-1.7,4.3-1.7c3.2,0,5.2,1.2,5.2,7.2v16.3h7.2V36.7c0-3.2,0.3-4.2,1.2-5.4
					c0.9-1.1,2.5-1.8,4.3-1.8c2.4,0,5.5,0.7,5.5,7.2v16.3h7.3V35.2C261.7,27.5,257,22.8,249.4,22.8z"/>
				<path class="st19" d="M67.4,22.5c-8.4,0-15.2,7-15.2,15.7c0,8.6,6.8,15.6,15.1,15.6c5.7,0,10.7-3.1,13.3-8.3l0.8-1.5h-7.9
					l-0.3,0.4c-1.5,1.7-3.5,2.6-5.7,2.6c-3.5,0-6.3-2-7.6-5.4h22.2l0.1-1c0.1-1.2,0.2-2.1,0.2-2.7C82.3,29.4,75.6,22.5,67.4,22.5z
					 M59.7,35.5c0.3-1.6,0.7-2.4,1.7-3.5c1.4-1.6,3.7-2.6,5.9-2.6c3.7,0,6.9,2.6,7.6,6.1H59.7z"/>
				<path class="st19" d="M279,22.5c-8.4,0-15.2,7-15.2,15.7c0,8.6,6.7,15.6,15.1,15.6c5.7,0,10.7-3.1,13.4-8.3L293,44h-7.9
					l-0.3,0.4c-1.5,1.7-3.5,2.6-5.7,2.6c-3.5,0-6.3-2-7.6-5.4h22.2l0.1-1c0.1-1.2,0.2-2.1,0.2-2.7C293.9,29.4,287.2,22.5,279,22.5z
					 M271.3,35.5c0.3-1.6,0.7-2.4,1.7-3.5c1.4-1.6,3.7-2.6,6-2.6c3.7,0,6.9,2.6,7.6,6.1H271.3z"/>
				<rect x="118.8" y="15.8" class="st19" width="7.3" height="7.3"/>
				<g>
					<path class="st19" d="M301.4,17.8c0-1.3-0.7-1.9-2.2-1.9h-2.5v6.5h1v-2.8h1.1l1.7,2.8h1.1l-1.8-2.9
						C300.7,19.5,301.4,19,301.4,17.8z M298.8,18.8h-1v-2.1h1.3c0.7,0,1.4,0.1,1.4,1C300.4,18.8,299.6,18.8,298.8,18.8z M298.9,13.6
						c-3,0-5.5,2.4-5.5,5.6c0,3.2,2.5,5.6,5.5,5.6c3,0,5.5-2.4,5.5-5.6C304.3,16,301.8,13.6,298.9,13.6z M298.9,24
						c-2.6,0-4.5-2.1-4.5-4.8c0-2.7,2-4.7,4.5-4.7c2.5,0,4.5,2.1,4.5,4.7C303.3,21.9,301.4,24,298.9,24z"/>
				</g>
			</g>
		</g>
	</g>
</g>
</svg>
