<?xml version="1.0" encoding="utf-8"?>
<!-- Generator: Adobe Illustrator 26.0.1, SVG Export Plug-In . SVG Version: 6.00 Build 0)  -->
<svg version="1.1" id="Capa_1" xmlns="http://www.w3.org/2000/svg" xmlns:xlink="http://www.w3.org/1999/xlink" x="0px" y="0px"
	 viewBox="0 0 272.9 118.6" style="enable-background:new 0 0 272.9 118.6;" xml:space="preserve">
<style type="text/css">
	.st0{fill:#1D1D1B;}
	.st1{fill:#FFFFFF;}
	.st2{fill-rule:evenodd;clip-rule:evenodd;}
	.st3{stroke:#1D1D1B;stroke-width:2;stroke-linecap:round;stroke-miterlimit:10;}
	.st4{clip-path:url(#SVGID_00000010285738436704543880000011667592146170400141_);fill:#FFFFFF;}
	.st5{fill:none;}
	.st6{clip-path:url(#SVGID_00000101083072004417369750000011461392639188814726_);fill:#FFFFFF;}
	.st7{clip-path:url(#SVGID_00000039828528936706066850000004231285669766862980_);fill:#FFFFFF;}
	.st8{clip-path:url(#SVGID_00000011026354657462928720000000201194728091337359_);fill:#FFFFFF;}
	.st9{fill:#B2B2B2;}
	.st10{fill:#EDEDED;}
	.st11{fill:#EDEDED;stroke:#DADADA;stroke-width:2.7416;stroke-linecap:round;stroke-linejoin:round;stroke-miterlimit:10;}
	.st12{fill:none;stroke:#DADADA;stroke-width:2.7416;stroke-linecap:round;stroke-linejoin:round;stroke-miterlimit:10;}
	.st13{fill:none;stroke:#DADADA;stroke-width:5.6327;stroke-linecap:round;stroke-linejoin:round;stroke-miterlimit:10;}
	.st14{clip-path:url(#SVGID_00000026131653117577328580000013789506445173653405_);fill:#FFFFFF;}
	.st15{fill:none;stroke:#FFFFFF;stroke-width:3;stroke-linecap:round;stroke-miterlimit:10;}
	.st16{clip-path:url(#SVGID_00000156546125781079466510000003401172251448950159_);fill:#FFFFFF;}
	.st17{fill:none;stroke:#B2B2B2;stroke-width:2;stroke-linecap:round;stroke-miterlimit:10;}
	.st18{fill:#00AEEF;}
	.st19{fill:#231F20;}
	.st20{clip-path:url(#SVGID_00000043457827548830898230000005096149366037493917_);fill:#FFFFFF;}
	.st21{fill:#DADADA;}
	.st22{fill:#44C791;}
	.st23{fill-rule:evenodd;clip-rule:evenodd;fill:#44C791;}
	.st24{fill:#1C284C;}
	.st25{fill:#3C0066;}
	.st26{fill:url(#SVGID_00000163753300614815127350000002973085304174595255_);}
	.st27{fill:url(#SVGID_00000168105074792797523320000014026134397724328874_);}
	.st28{fill:url(#SVGID_00000178891969693550396020000010079272873027316630_);}
	.st29{fill:url(#SVGID_00000035497320206186977610000011715289142534333825_);}
	.st30{fill:url(#SVGID_00000153695170328225319870000012788806214900908183_);}
	.st31{fill:url(#SVGID_00000061449890775519473170000002422590738386441621_);}
	.st32{fill:url(#SVGID_00000129919051527359286050000011686299440187323563_);}
	.st33{opacity:0.18;}
	.st34{opacity:0.11;}
	.st35{opacity:0.13;}
	.st36{fill:url(#SVGID_00000088823977199762973030000013142963386624608920_);}
	.st37{fill:url(#SVGID_00000046302726753596188130000013599774632432064160_);}
	.st38{opacity:0.55;fill:#FFFFFF;}
	.st39{fill:url(#SVGID_00000024003617451642172130000014695258293649914007_);}
	.st40{fill:url(#SVGID_00000013157603286681695070000017440348893274940827_);}
	.st41{fill:url(#SVGID_00000085931251413070379410000011242674117106900659_);}
	.st42{fill:url(#SVGID_00000010990106505814087640000007315738595037709742_);}
	.st43{fill:url(#SVGID_00000130617750826621852210000002543588539696123560_);}
	.st44{fill:url(#SVGID_00000070083732045550824100000015632676698952393658_);}
	.st45{opacity:0.54;}
	.st46{opacity:0.47;clip-path:url(#SVGID_00000079445262032730574290000001081865754135461044_);}
	.st47{fill:url(#SVGID_00000026160000813056146060000005448311973481001616_);}
	.st48{fill:url(#SVGID_00000099656837113335771610000016200398845259425927_);}
	.st49{fill:url(#SVGID_00000023254153334144149770000001065036720852520370_);}
	.st50{fill:url(#SVGID_00000147927077654855071060000007989111187754253217_);}
	.st51{fill:url(#SVGID_00000128469092787862136360000017527599356991351698_);}
	.st52{fill:url(#SVGID_00000086678119132356897280000009842216331856919968_);}
	.st53{opacity:0.22;clip-path:url(#SVGID_00000108286876138594137500000011083716213586547123_);}
	.st54{fill:url(#SVGID_00000176013634644893535460000015270371620843150524_);}
	.st55{fill:url(#SVGID_00000069399044387074810290000007591120052594316215_);}
	.st56{fill:url(#SVGID_00000132074251035803545240000017583246625978099382_);}
	.st57{fill:url(#SVGID_00000152253486701602610100000010101051434096846242_);}
	.st58{opacity:0.49;fill:url(#SVGID_00000070829893257315373120000012211509117132229003_);}
	.st59{fill:url(#SVGID_00000142163267115462909730000009251486028991587976_);}
	.st60{fill:url(#SVGID_00000173131700163857748680000015438360728920993970_);}
	.st61{fill:url(#SVGID_00000077282157649477572130000015634295331963140247_);}
	.st62{fill:url(#SVGID_00000054250668889463244390000002615093460299405201_);}
	.st63{opacity:0.49;fill:url(#SVGID_00000039834554629686191090000004546843287862319754_);}
	.st64{opacity:0.39;}
	.st65{fill:#7D0D99;}
	.st66{fill:url(#SVGID_00000152970431125571223320000013058039152505905044_);}
	.st67{fill:url(#SVGID_00000036230511009876629970000011313313604187453084_);}
	.st68{fill:url(#SVGID_00000163056770514627707390000006570544905779526542_);}
	.st69{fill:url(#SVGID_00000127002580386621405080000011840398930906281863_);}
	.st70{filter:url(#Adobe_OpacityMaskFilter);}
	.st71{opacity:0.42;mask:url(#SVGID_00000108298350003391844300000016632847582217464761_);}
	.st72{fill:#020202;}
	.st73{fill:url(#SVGID_00000138566322988522489120000005608123557743193770_);}
	.st74{fill:url(#SVGID_00000011737946933557880670000015716237974429746623_);}
	.st75{filter:url(#Adobe_OpacityMaskFilter_00000168814918315192282720000000705239119377228418_);}
	.st76{opacity:0.42;mask:url(#SVGID_00000046336177520685963330000014059147546614672513_);}
	.st77{fill:url(#SVGID_00000067195672875774528260000001655321587735066814_);}
	.st78{fill:url(#SVGID_00000169553143522803406050000009823323117953060540_);}
	.st79{fill:url(#SVGID_00000130605123564677207290000017258322069691667876_);}
	.st80{fill:url(#SVGID_00000108988342522032610630000011275515826290361748_);}
	.st81{fill:url(#SVGID_00000010991999313956753830000007909058951364200379_);}
	.st82{fill:url(#SVGID_00000084516916448261865900000003882231666739726510_);}
	.st83{opacity:0.62;fill:#FFFFFF;}
	.st84{fill:none;stroke:#1F1C20;stroke-width:1.1454;stroke-linecap:round;stroke-linejoin:round;stroke-miterlimit:10;}
	
		.st85{clip-path:url(#SVGID_00000123419038264990072910000017014745670555404199_);fill:url(#SVGID_00000048487935430374364620000006407440180564848542_);}
	
		.st86{clip-path:url(#SVGID_00000123419038264990072910000017014745670555404199_);fill:url(#SVGID_00000003066631903300128440000015529469901068483519_);}
	.st87{opacity:0.29;}
	.st88{fill:url(#SVGID_00000061437814235149789760000018269144598851922573_);}
	.st89{fill:url(#SVGID_00000034049116330345483800000005937237592582477699_);}
	.st90{fill:url(#SVGID_00000181775728561015021290000014182639178206023348_);}
	.st91{fill:url(#SVGID_00000177449459732731220620000003327471144520794516_);}
	.st92{fill:url(#SVGID_00000110456847338454998450000014558796158813370269_);}
	.st93{fill:url(#SVGID_00000081619871404013114330000015678291216190116501_);}
	.st94{fill:url(#SVGID_00000103246019036565865740000009514138604692413581_);}
	.st95{fill:url(#SVGID_00000127007088620129516480000012295466841748940223_);}
	.st96{fill:url(#SVGID_00000031191594781146563820000010127191372957990320_);}
	.st97{fill:url(#SVGID_00000013880379888993327030000011569107252619280300_);}
	.st98{fill:url(#SVGID_00000116943935916139132660000011021220148167872150_);}
	.st99{fill:url(#SVGID_00000112593956256203280560000016414191677941317529_);}
	.st100{fill:#0A1E25;}
	.st101{fill:none;stroke:#000000;stroke-width:2.8648;stroke-linecap:round;stroke-linejoin:round;stroke-miterlimit:10;}
	.st102{fill:#575756;stroke:#575756;stroke-miterlimit:10;}
	.st103{fill:none;stroke:#48FF11;stroke-width:3;stroke-miterlimit:10;}
</style>
<g>
	<g>
		<path d="M57.9,22.8c-0.8,0.5-1.5,0.8-2.3,1c-0.8,0.2-1.5,0.4-2.3,0.4c-0.7,0.1-1.4,0.1-2.1,0.1c-0.7,0-1.3,0-1.9-0.1
			c-0.9,0-1.6-0.2-2.3-0.4c-0.7-0.2-1.2-0.5-1.7-0.8c-0.5-0.3-0.9-0.7-1.2-1.1c-0.3-0.4-0.5-0.8-0.7-1.3c-0.4-1-0.7-2.1-0.7-3.3
			c4.9-2.2,10-4.2,15.3-6c5.3-1.8,10.7-3.1,16.2-3.9c1.2-0.2,2.3-0.3,3.4-0.5c1.1-0.1,2.1-0.2,2.9-0.1c0.8,0.1,1.5,0.4,1.9,0.8
			c0.5,0.4,0.7,1.1,0.6,2.1c-0.1,2-0.3,3.6-0.7,4.6c-0.4,1-1,1.8-1.7,2.3c-0.7,0.5-1.6,0.9-2.7,1.1c-1,0.2-2.2,0.6-3.5,1.2
			c-0.5,1.5-1,3.6-1.7,6.2c-0.7,2.6-1.5,5.5-2.4,8.7c-0.9,3.3-2,6.8-3.1,10.6s-2.5,7.8-4,11.8c-1.5,4.1-3.1,8.2-4.9,12.3
			c-1.8,4.2-3.8,8.2-6,12.2c-2.2,4-4.5,7.8-7.1,11.4c-2.6,3.6-5.3,6.9-8.3,9.9c-3,3-6.2,5.5-9.6,7.7c-3.4,2.2-7.1,3.8-11,4.9
			c-1,0.3-2.2,0.4-3.5,0.4c-1.3,0-2.6-0.2-3.7-0.5c-1.2-0.4-2.1-0.9-2.8-1.6c-0.7-0.7-1-1.7-0.9-2.9c0-0.3,0.4-0.7,1.1-1.1
			c0.7-0.4,1.5-0.8,2.3-1.2c0.9-0.4,1.8-0.8,2.6-1.2c0.9-0.4,1.6-0.7,2-0.9c2.2-1.1,4.1-2.2,5.6-3.4c1.6-1.2,3-2.4,4.3-3.8
			c1.3-1.3,2.5-2.7,3.7-4.2c1.2-1.5,2.5-3.1,3.9-4.8c1.7-2.1,3.3-4.5,4.9-7.2c1.6-2.7,3-5.6,4.5-8.6c1.4-3.1,2.7-6.2,4-9.5
			c1.3-3.3,2.5-6.6,3.6-9.8c1.1-3.3,2.2-6.5,3.1-9.6c1-3.1,1.9-6,2.7-8.8c0.8-2.7,1.6-5.2,2.3-7.5C56.7,26.2,57.4,24.3,57.9,22.8z"
			/>
		<path d="M123.5,88c-2.2-0.1-4-0.4-5.5-0.9c-1.5-0.5-2.8-1.2-3.8-2.1c-1-0.9-1.8-1.9-2.4-3.1c-0.6-1.2-1-2.4-1.4-3.8
			c-0.3-1.4-0.6-2.8-0.7-4.2c-0.2-1.5-0.3-2.9-0.5-4.4c-1.7-0.3-3.4-0.6-5.3-0.7c-1.8-0.2-3.7-0.3-5.6-0.5c-1.9-0.1-3.7-0.2-5.6-0.3
			c-1.8-0.1-3.6-0.1-5.2,0c-0.8,1.4-1.7,3-2.9,4.9c-1.1,1.9-2.3,3.8-3.5,5.8c-1.2,2-2.3,4.1-3.4,6.1c-1.1,2-1.4,2.8-2.2,4.5
			c-0.6,0.9-1.5,1-2.4,0.6c-0.9-0.4-2.5-1-3.8-1.2c-2-0.3-7.7-1.4-5.7-4.5c0.9-1.8,2.2-4,3.7-6.5c1.5-2.5,3.2-5.3,5.2-8.4
			c2-3.1,4.2-6.3,6.5-9.8c2.4-3.5,4.9-7,7.6-10.7c2.7-3.7,5.5-7.4,8.4-11.2C98,33.7,101,30,104,26.3c3-3.7,6.1-7.2,9.1-10.7
			c3.1-3.5,6.1-6.7,9.1-9.7c0.9-0.1,1.8,0,2.9,0.1c1.1,0.1,2.1,0.3,3.1,0.5c0.9,0.2,1.7,0.5,2.3,0.8c0.6,0.3,0.9,0.6,0.9,0.8
			c-0.9,4.6-1.8,9.4-2.7,14.5c-0.9,5.1-1.6,10.2-2.2,15.4c-0.6,5.2-1,10.3-1.2,15.4c-0.2,5.1-0.2,9.9,0.2,14.5
			c0.1,1.6,0.3,3.2,0.5,4.8c0.2,1.6,0.5,3.2,0.7,4.7c0.2,1.5,0.3,2.9,0.4,4.3c0.1,1.3,0,2.5-0.2,3.5c-0.2,1-0.6,1.8-1.1,2.3
			C125.4,87.7,124.5,88,123.5,88z M108.9,61c0.1-0.7,0.3-1.8,0.5-3.4c0.2-1.5,0.5-3.3,0.7-5.2c0.3-1.9,0.6-4,0.9-6.1
			c0.3-2.1,0.7-4.2,1-6c0.3-1.9,0.6-3.5,0.9-4.9c0.3-1.4,0.6-2.4,0.8-2.9c-0.7,0.7-1.5,1.6-2.5,2.8c-1,1.2-2.1,2.6-3.2,4.2
			c-1.2,1.6-2.4,3.2-3.7,5c-1.3,1.8-2.6,3.6-4,5.4c-1.3,1.8-2.7,3.6-4,5.4c-1.3,1.8-2.6,3.4-3.9,4.8L108.9,61z"/>
		<path d="M181.8,47.5c1.1,2.5,2.4,4.9,3.9,7.5c1.5,2.5,3.1,5,4.8,7.5c1.8,2.5,3.6,4.8,5.6,7.1s4.1,4.4,6.3,6.4
			c2.2,1.9,4.5,3.7,6.9,5.2c2.4,1.5,4.8,2.8,7.3,3.7c0.8,0.3,1.4,0.6,1.9,0.9c0.5,0.3,0.9,0.7,1.2,1c0.3,0.4,0.7,0.8,0.9,1.4
			c0.3,0.5,0.6,1.2,0.9,1.9c-0.5,0.1-1.1,0.2-1.6,0.2c-0.6,0.1-1.1,0.1-1.7,0.1c-4.1,0.2-8.2-0.5-12.2-2.2c-4-1.7-8-4.1-11.8-7.3
			c-3.8-3.2-7.6-6.9-11.2-11.3c-3.6-4.4-7.1-9-10.3-14.1l-13.1,11.6c-0.6,2.3-1.2,4.8-1.7,7.4c-0.5,2.6-1.1,5.1-1.6,7.6
			c-0.5,2.5-1.1,4.9-1.7,7.2c-0.6,2.3-1.3,4.3-2.1,6.1c-0.8,1.8-1.6,3.2-2.7,4.3c-1,1.1-2.2,1.7-3.5,1.7c-0.9,0.1-1.9,0-3.1-0.3
			c-1.2-0.2-2.3-0.6-3.4-1c-1.1-0.5-2-1-2.8-1.7c-0.8-0.7-1.2-1.4-1.2-2.3c-0.1-1.4,0-3.3,0.4-5.7c0.3-2.4,0.8-5.2,1.4-8.2
			c0.6-3.1,1.4-6.5,2.3-10.1c0.9-3.7,1.8-7.5,2.9-11.4c1-3.9,2.1-7.9,3.2-12s2.2-8,3.3-11.9c1.1-3.9,2.2-7.6,3.2-11.1
			c1-3.6,1.9-6.8,2.8-9.8c0.7-2.5,1.7-4.3,2.8-5.5c1.2-1.1,2.5-1.7,3.9-1.8c1.2-0.1,2.4,0.2,3.4,0.9c1.1,0.7,2,1.5,2.8,2.4
			c0.8,0.9,1.4,1.8,1.9,2.7c0.5,0.9,0.7,1.6,0.7,2c0.1,0.8-0.1,2-0.3,3.4c-0.3,1.4-0.6,3-1,4.7c-0.4,1.8-0.9,3.6-1.5,5.6
			c-0.6,1.9-1.1,3.9-1.7,5.7c-0.6,1.9-1.1,3.7-1.6,5.4c-0.5,1.7-0.9,3.2-1.2,4.5c1.1-0.9,2.4-2,4-3.4c1.5-1.4,3.2-3,5-4.7
			c1.8-1.7,3.7-3.6,5.7-5.5c2-1.9,4-3.8,6-5.7c2-1.9,4-3.7,6-5.4c2-1.7,3.8-3.3,5.6-4.6c1.8-1.3,3.4-2.4,4.9-3.2
			c1.5-0.8,2.8-1.3,3.9-1.3c0.7,0,1.4,0,2.3,0.2c0.8,0.2,1.6,0.5,2.4,0.9c0.7,0.4,1.4,0.9,1.9,1.6c0.5,0.6,0.8,1.3,0.9,2.1
			c0,0.4-0.1,0.8-0.3,1.2c-0.2,0.4-0.6,0.8-1,1.3c-0.4,0.4-0.8,0.9-1.3,1.3c-0.5,0.4-0.9,0.9-1.4,1.3c-4.4,4.2-8.8,8.3-13.2,12.4
			C190.3,38.7,186,43,181.8,47.5z"/>
		<path d="M258.4,88.2c-2.2-0.1-4-0.4-5.5-0.9c-1.5-0.5-2.7-1.3-3.7-2.2c-1-0.9-1.8-2-2.3-3.1c-0.6-1.2-1-2.5-1.3-3.8
			c-0.3-1.4-0.6-2.8-0.7-4.2c-0.1-1.5-0.3-2.9-0.4-4.4c-1.7-0.3-3.4-0.6-5.3-0.8c-1.8-0.2-3.7-0.4-5.6-0.5c-1.9-0.1-3.7-0.2-5.6-0.3
			c-1.8-0.1-3.6-0.1-5.2-0.1c-0.8,1.4-1.8,3-2.9,4.8c-1.1,1.9-2.3,3.8-3.5,5.8c-1.2,2-2.4,4-3.5,6.1c-1.1,2-1.3,2.2-2.1,3.9
			c-0.3,0.1-1.5-0.4-2.4-0.8c-0.9-0.4-2.1,1-3.2,0.4c-1.1-0.7-2.3-1.4-3.4-2.1c-1.2-0.8-2.1-1.4-2.9-2.1c1-1.8,2.2-4,3.7-6.5
			c1.5-2.5,3.3-5.3,5.3-8.4c2-3,4.2-6.3,6.6-9.7c2.4-3.4,5-7,7.7-10.6c2.7-3.6,5.5-7.3,8.5-11.1c2.9-3.7,5.9-7.4,9-11.1
			c3.1-3.6,6.1-7.2,9.2-10.6c3.1-3.4,6.2-6.7,9.2-9.7c0.9-0.1,1.8,0,2.9,0.1c1.1,0.1,2.1,0.3,3.1,0.5c0.9,0.2,1.7,0.5,2.3,0.8
			c0.6,0.3,0.9,0.6,0.8,0.8c-1,4.6-1.9,9.4-2.8,14.5c-0.9,5.1-1.7,10.2-2.3,15.3c-0.6,5.2-1.1,10.3-1.4,15.3
			c-0.3,5.1-0.3,9.9,0.1,14.5c0.1,1.6,0.3,3.2,0.5,4.8c0.2,1.6,0.4,3.2,0.6,4.7c0.2,1.5,0.3,2.9,0.4,4.3c0.1,1.3,0,2.5-0.2,3.5
			c-0.2,1-0.6,1.8-1.2,2.3S259.5,88.3,258.4,88.2z M244.1,61.1c0.1-0.7,0.3-1.8,0.5-3.4c0.2-1.5,0.5-3.3,0.8-5.2
			c0.3-1.9,0.6-4,1-6.1c0.3-2.1,0.7-4.1,1-6c0.3-1.9,0.7-3.5,1-4.9s0.6-2.4,0.8-2.9c-0.7,0.7-1.5,1.6-2.5,2.8
			c-1,1.2-2.1,2.6-3.3,4.1c-1.2,1.5-2.4,3.2-3.8,5c-1.3,1.8-2.7,3.6-4,5.4c-1.4,1.8-2.7,3.6-4.1,5.3c-1.4,1.7-2.7,3.3-3.9,4.8
			L244.1,61.1z"/>
	</g>
</g>
</svg>
