<svg xmlns="http://www.w3.org/2000/svg" viewBox="0 0 445.6 447.43"><defs><style>.cls-1{fill:#fff;}</style></defs><g id="Capa_2" data-name="Capa 2"><g id="Capa_1-2" data-name="Capa 1"><path class="cls-1" d="M240.45,446.36c18-.38,32.87-3.87,47.61-7.6,9.67-2.45,19.05-6.1,28.52-9.32,3.6-1.22,7.35-2.34,10.61-4.23,8-4.64,15.87-9.55,23.61-14.63,16.23-10.65,31.47-22.5,43.63-37.81,6.56-8.27,13.1-16.57,19.09-25.25a183.56,183.56,0,0,0,12.71-21.45,131,131,0,0,0,9.25-22.16,159,159,0,0,0,4.78-25.13c2-16.44,4.08-32.92,5.07-49.44A165.61,165.61,0,0,0,444.08,198c-2-15.42-3.25-31-9.42-45.74-5.25-12.54-7.64-26.27-14.52-38.18-5.36-9.26-10.73-18.69-17.41-27-7.8-9.67-17.09-18.14-25.64-27.21-12.19-13-26.3-23.63-41.17-33.1a164.73,164.73,0,0,0-51.54-21.3A213.59,213.59,0,0,0,254,.72c-10.23-.84-20.6.08-30.86-.54-13.42-.8-26.51,1.18-39.62,3.29-8.61,1.39-17.22,2.74-25.79,4.31-4.83.89-10,1.39-14.3,3.48-11.53,5.59-22.64,12.06-34,18C92.48,38.05,79.07,51.35,65,63.77A87.94,87.94,0,0,0,52.45,77.9c-5.12,7-9.71,14.39-14.29,21.76a96.24,96.24,0,0,0-6.23,12q-4.41,10-8.22,20.29c-1.07,2.84-1.23,5.48-3.63,8.34-4,4.8-6.14,11.4-8.41,17.48-2.13,5.74-3.42,11.79-5.08,17.71-.76,2.73-1.89,5.43-2.2,8.22-.48,4.47-.37,9-.59,13.5-.52,10.39-1.15,20.76-1.62,31.15-.24,5.46,0,11-.41,16.41-.35,4.75-2,9.51-1.73,14.17.45,6.55,2.16,13,3.43,19.5a181.23,181.23,0,0,0,21,55.75c4.57,7.93,9.53,15.67,14.73,23.2,4.79,6.92,9.45,14.17,15.42,20,7.42,7.23,16.25,13,24.25,19.67,18.57,15.49,40,26.14,62.2,34.82,13.06,5.09,27.15,7.64,40.9,10.81,7.65,1.76,15.53,2.56,23.33,3.58a108.09,108.09,0,0,0,15,1.21C227.9,447.33,235.51,446.64,240.45,446.36Z"/><path d="M272.8,250.06l-2.27,13.17s-8.18,8.64-13.86,16.14-7.28,9.31-.31,9.31c12.72,0,16.84.74,20.9-1.13,2.95-1.37,1.14-10.23,1.14-10.23a10.46,10.46,0,0,0,6.36-4.54c1.83-2.84-.46-8.86-.46-8.86l4.34-9.7A45.35,45.35,0,0,1,272.8,250.06Zm140.28-96c-.89-.83-2.58.32-9.91,8.58-6.91,7.8-7.66,10.12-13.4,9.36-4.53-.6-8.69,2.3-10.73,4.38a25.14,25.14,0,0,0-3.35,4.28s-3.89-6.53-8.73-3.47c-5.28,3.35-7.67,10-12.65,12.14,3.3-9.53,5.76-18.88,6.12-25.14a20.53,20.53,0,0,0-2.2-10.33c9.13-10.56,18.53-28.59,12.77-33.69-6.7-5.94-20.47-3.08-28.06.77-3.57,1.8-7.74,4.33-10.61,6.12-14.23-5.58-36.13-1.33-36.13-1.33-25-6.68-50,9.94-50,9.94h-1.37c0-5.42,2.58-12.45,2.61-12.53a1.35,1.35,0,0,0-.42-1.54,1.34,1.34,0,0,0-1.59-.08,95.09,95.09,0,0,1-18.63,9.07,15.83,15.83,0,0,1-1.54-2.24c.43-.2.85-.4,1.27-.62a40.73,40.73,0,0,0,7.63-5.09c2.08.21,3.44.33,3.44.33l.14,0h.17a2,2,0,0,0,.71-4l-.62,0c-1.51-.08-3.27-.13-5.24-.11l-1.64,0-1.81.09-1.21.06-1.24.12-2.52.25c-.84.07-1.68.2-2.5.32l-2.42.33c-1.56.28-3,.5-4.26.77s-2.27.46-3,.63-1.12.27-1.12.27h0a.91.91,0,0,0,.4,1.78l1.12-.17c.71-.1,1.73-.23,3-.37s2.67-.24,4.21-.39l2.38-.13c.82,0,1.64-.1,2.46-.1l2.45,0,1.21,0h.12a36.48,36.48,0,0,1-3.51,2.09,39.6,39.6,0,0,1-11.25,3.83l-.74.13-.74.11-1.55.22c-1,.12-2,.26-3,.35q-3,.33-6.09.4a63.17,63.17,0,0,1-12.08-.73,40.68,40.68,0,0,1-5.82-1.36c-.94-.3-1.86-.63-2.76-1-.44-.19-.88-.39-1.3-.6h0l1-7.47,1.26.28c.8.19,1.61.29,2.41.4s1.61.27,2.43.29l2.42.17c.81,0,1.62,0,2.43,0h1.22l1.2-.08,2.42-.18,2.39-.34,1.19-.18,1.18-.25,2.35-.5c.78-.21,1.55-.44,2.32-.66,1.55-.4,3-1,4.54-1.54.76-.25,1.47-.61,2.21-.92l2.18-1a.49.49,0,0,0-.37-.91l0,0-2.2.82c-.73.27-1.45.58-2.21.78-1.5.44-3,1-4.51,1.25-.76.16-1.52.35-2.28.51l-2.3.36-1.15.18-1.16.1-2.32.2-2.32,0h-1.15l-1.16-.06c-.77,0-1.54-.07-2.3-.15l-2.29-.28c-.77-.07-1.51-.27-2.26-.41a21.35,21.35,0,0,1-2.24-.51l-2.2-.61-2.15-.78-.53-.19-.52-.23-1-.46-1-.47-1-.54a33.85,33.85,0,0,1-3.82-2.37l-1.7-1.33c-.57-.48-1.15-1.06-1.73-1.59l-.36-.34-.37-.42-.72-.82a17.13,17.13,0,0,1-1.33-1.72,20.72,20.72,0,0,1-2.08-3.73c-.27-.66-.51-1.33-.72-2a18,18,0,0,1-.49-2,18.46,18.46,0,0,1-.31-4.19c0-.35,0-.7.07-1a8.53,8.53,0,0,1,.12-1c0-.22.07-.43.11-.64l.68-.24c.71-.25,1.43-.49,2.15-.71,1.43-.45,2.88-.87,4.31-1.2.71-.17,1.43-.32,2.11-.42.37-.06.63-.08.93-.12.13,0,.37,0,.55,0h.39a1,1,0,0,1,.25,0v-.08s2.38,1,3.73,5.86q.21.8.39,1.74c.14.72.25,1.5.34,2.37l0,0c0,.11,0,.21,0,.32a25.77,25.77,0,0,1,0,4.48,21.11,21.11,0,0,1-.29,2.24c-.13.74-.3,1.47-.5,2.23a.49.49,0,0,0,.29.59.5.5,0,0,0,.65-.28h0c.28-.71.56-1.46.79-2.23s.42-1.54.58-2.32a27.11,27.11,0,0,0,.52-4.78c0-.54,0-1.09,0-1.64a23.79,23.79,0,0,1,2.49.67,20.64,20.64,0,0,1,7.18,4,14.64,14.64,0,0,1,1.55,1.6c.25.28.45.58.68.86s.4.6.58.91.35.61.5.91.29.62.41.92.22.61.33.9l.24.87a13.82,13.82,0,0,1,.31,1.56c.05.47.13.88.14,1.22,0,.69,0,1.09,0,1.09v0a.37.37,0,0,0,.33.35.37.37,0,0,0,.4-.33s0-.42.09-1.13c0-.36,0-.8,0-1.31s0-1.08-.11-1.7c-.05-.31-.1-.64-.15-1s-.15-.68-.23-1-.21-.71-.32-1.08-.28-.73-.42-1.1c-.07-.16-.15-.32-.23-.48a2,2,0,0,0,.37-.22l.3-.23c.16-.13.46-.33.85-.59s.89-.56,1.47-.88l.94-.5c.34-.17.7-.32,1.08-.5.74-.37,1.6-.63,2.49-1l1.41-.41c.24-.07.48-.15.73-.21l.76-.16,1.56-.33,1.63-.2.82-.1.84,0,1.68,0c1.13,0,2.25.14,3.37.19l3.24.55,3,.82a9.46,9.46,0,0,1,1.36.47l1.25.48a16.79,16.79,0,0,1,2.18.93l1.63.82,1.43.71.05,0a.61.61,0,0,0,.8-.24.6.6,0,0,0-.21-.83l-1.4-.85-1.62-1a13.35,13.35,0,0,0-1.74-.92l0,.07c-.46-.26-.93-.5-1.4-.72l-.34-.16-.05,0c-.47-.21-.93-.41-1.38-.59l-.11,0h0c-1-.4-1.95-.72-2.8-1L216.3,95c-.73-.22-1.37-.4-1.88-.53l0,0-1.4-.34c-1.19-.16-2.4-.39-3.62-.49l-1.84-.08c-.3,0-.61,0-.91,0h-.14c-.57-.07-1.31-.17-2.19-.34-.57-.09-1.21-.2-1.88-.37s-1.42-.31-2.19-.54a34.55,34.55,0,0,1-5.06-1.83,25.82,25.82,0,0,1-5.38-3.24,18.41,18.41,0,0,1-3.88-4.17c10.3,2.24,18.35,3.2,18.93,3.27h0a2,2,0,0,0,.45-4.06c-.11,0-4.77-.57-11.51-1.82a78.92,78.92,0,0,1-8-1.63l-2-.45v0c-1.11-.28-2.13-.54-3-.77,0,0,0,.07,0,.11-3.44-.86-7-1.85-10.49-3-1.46-2.73-4-4.86-6.91-4.65a10.07,10.07,0,0,0-3.37.79H160l-.38.2-.15.09c-.46.27-.86.54-1.22.8a8.33,8.33,0,0,0-1.81,1.82,1,1,0,0,1-.08.11,8.31,8.31,0,0,0-.33.89,8,8,0,0,0-.25,1.26c0,.23,0,.46,0,.69a5.51,5.51,0,0,0,.06.7,2.7,2.7,0,0,0,.12.69c.06.23.13.45.2.67a7.58,7.58,0,0,0,.61,1.17,6.33,6.33,0,0,0,.74.92c.27.24.51.51.77.7l.72.52c.45.31.86.47,1.12.63l.42.22a.69.69,0,0,0,.76-.08.68.68,0,0,0,.09-1l-.05-.07-.27-.33a7.84,7.84,0,0,1-.68-.87c-.12-.18-.24-.38-.37-.59a5.71,5.71,0,0,1-.3-.67,2.54,2.54,0,0,1-.19-.69,3,3,0,0,1,0-.65l.06-.28a.84.84,0,0,1,.08-.27c0-.08.07-.16.11-.23s.09-.15.13-.22a4.16,4.16,0,0,1,.32-.39,3.49,3.49,0,0,1,.35-.32c.1-.09.24-.17.33-.24h0l.37-.28.37-.24a5.67,5.67,0,0,1,2.39-.84,3.63,3.63,0,0,1,3,1.67,8.33,8.33,0,0,1,1.14,1.94,9,9,0,0,1,.65,2.32,10.87,10.87,0,0,1,.3,1.15c0,.18,0,.36.07.53s0,.32,0,.46h0c-.72,0-1.43.09-2.12.17-1.62.19-3.2.45-4.77.75l-2.34.49c-.78.18-1.54.35-2.35.55h0l-.17.06a2.46,2.46,0,0,0-1.56,1.69,13.48,13.48,0,0,0-.3,1.45c-.06.41-.12.83-.15,1.24h-.06c0,.56-.06,1.3,0,2.17,0,.15,0,.31,0,.47a28.59,28.59,0,0,0,.55,4.53c.17.81.38,1.65.64,2.51.22.71.47,1.43.77,2.16.15.35.31.71.48,1.06a26,26,0,0,0,2.77,4.37,22.12,22.12,0,0,0,1.68,1.93l.9.91.45.45.09.09,0,0,.06,0,.11.09.23.19c.62.51,1.18,1,1.85,1.52l1.82,1.28c-.3.1-.61.2-.92.28s-.69.18-1,.25a31.85,31.85,0,0,1-4.27.64c-.72,0-1.44.1-2.17.11s-1.45,0-2.18,0l-2.18-.09-2.19-.2c-.73,0-1.45-.19-2.17-.28s-1.45-.2-2.17-.35l-2.16-.41c-.72-.16-1.43-.34-2.15-.51l-1.07-.25-.27-.07-.12,0h0l-.07,0-.54-.17a16.94,16.94,0,0,1-2-.7l-1-.38-.94-.47a17,17,0,0,1-1.81-1c-.6-.36-1.13-.82-1.7-1.22l-.78-.69a8.5,8.5,0,0,1-.75-.72l-.72-.76c-.23-.26-.44-.54-.67-.81a20.86,20.86,0,0,1-1.23-1.69,25.06,25.06,0,0,1-2-3.73,27.65,27.65,0,0,1-1.39-4,40.56,40.56,0,0,1-1.33-8.52c-.08-1.44-.1-2.89,0-4.33,0-1.16.11-2.35.23-3.48l1-.54c.59-.32,1.19-.6,1.8-.88s1.22-.53,1.84-.75,1.25-.44,1.88-.61c.32-.09.63-.17,1-.23s.64-.15.95-.18.64-.1,1-.13l.95,0a10,10,0,0,1,1.83.16l.23,0h.08l.09,0c.16.05.36.1.49.15l.34.14.38.2a10.26,10.26,0,0,1,2.8,2.5,23.55,23.55,0,0,1,2.24,3.35,39.46,39.46,0,0,1,1.84,3.68c.51,1.17,1,2.38,1.39,3.58l-.26.06c-.67.13-1.33.33-2,.52s-1.3.44-1.94.65-1.24.51-1.83.76-1.12.56-1.65.82-1,.56-1.42.82-.85.48-1.18.73l-.87.62-.76.53a.39.39,0,0,0-.11.52.38.38,0,0,0,.53.15l0,0,.78-.45.9-.52c.34-.21.76-.38,1.2-.6a15,15,0,0,1,1.44-.66c.52-.2,1.06-.44,1.64-.64s1.17-.4,1.79-.56,1.24-.34,1.88-.45,1.27-.25,1.9-.31l.93-.12.92-.06c.59-.06,1.18,0,1.72-.06s.88,0,1.29.05a21,21,0,0,1-.11-2.4l-1.27.08c-.59.07-1.22.11-1.86.23l-.38.06c-.36-1.34-.78-2.63-1.25-3.92a40.94,40.94,0,0,0-1.67-4,25.09,25.09,0,0,0-2.2-3.76,15.63,15.63,0,0,0-1.23-1.51l.35-.28A12.32,12.32,0,0,1,144.7,75c.31-.2.65-.42,1-.62a8.73,8.73,0,0,1,1.19-.55c.38-.14.9-.31,1.4-.53a16.14,16.14,0,0,0,1.65-.73,8.23,8.23,0,0,0,1.57-1c1.08.5,2.15,1,3.21,1.44a8.33,8.33,0,0,1,2.16-3.51l-3.18-1.42a1.16,1.16,0,0,0,0-.18l0-.13v0l0-.24v-.24c0-.12,0-.24,0-.36v-.17a.82.82,0,0,0,0-.21c-.05-.4-.12-.79-.2-1.15a5.22,5.22,0,0,0-.75-1.57,6,6,0,0,0-.84-1,4.56,4.56,0,0,0-.66-.5l-.32-.19a1.74,1.74,0,0,0-2.13,2.73L149,65l0,0h0l.13.1.07.07a.08.08,0,0,1,0,0h0a2.57,2.57,0,0,1,.74,1.13h0c.35,1.16-.35,2.6-2,3.56a6.45,6.45,0,0,1-1.24.56h0c-.42.22-.84.44-1.3.7a12.34,12.34,0,0,0-1.35.93,13.73,13.73,0,0,0-1.1,1,16.76,16.76,0,0,0-1.44,1.6c-.08.11-.15.21-.22.29-.17-.13-.33-.26-.52-.38s-.34-.22-.53-.32L139.7,74c-.19-.09-.34-.13-.51-.2l-.06,0h0l-.1,0-.14,0-.29-.06a8.58,8.58,0,0,0-.85-.18A9.46,9.46,0,0,0,138,72a9.09,9.09,0,0,0-.11-2.28,9,9,0,0,0-.34-1.28,5.87,5.87,0,0,0-.27-.67c-.11-.23-.23-.47-.31-.61l-.3-.55-.2-.42-.21-.41c0-.13-.07-.27-.11-.4L136,65l0-.37c0-.11,0-.22,0-.33a1.34,1.34,0,0,1,0-.2c2.26,1.12,4.58,2.26,6.93,3.38.3.12,2,.64,3.24-2.94v0h0c.12-.33.27-.73.43-1.21s.43-1.37.63-2.2a14,14,0,0,0,.39-2.74,5.79,5.79,0,0,0-.15-1.62,3.55,3.55,0,0,0-.36-.95l-.17-.28-.1-.15,0-.06,0,0-.11-.12-.14-.15a5.5,5.5,0,0,0-1.26-1.05,5.83,5.83,0,0,0-1.42-.58,6.15,6.15,0,0,0-2.26-.14,3.63,3.63,0,0,0-.65.12l-.23.06,0,0-.13,0-.12,0a3.39,3.39,0,0,0-1-.75,3.13,3.13,0,0,0-1.55-.36l-.38,0-.21,0-.17,0-.1,0h0l-.07,0-.07,0-.28.09a5.46,5.46,0,0,0-2.74,2,6.58,6.58,0,0,0-.89,1.75,7.94,7.94,0,0,0-.35,1.4c-9.31-4.69-16.45-8.49-16.59-8.56A2,2,0,1,0,114,52.88c.15.08,8.1,4.31,18.23,9.38a.31.31,0,0,0,0,.08,5.57,5.57,0,0,0-.06.87,5.14,5.14,0,0,0,.08,1.08l.09.59c.06.2.12.4.19.61s.13.41.21.62l.3.6.32.6c.14.18.27.37.4.55l.41.55.34.41a3.51,3.51,0,0,1,.28.38,2.81,2.81,0,0,1,.24.36,5.12,5.12,0,0,1,.39.82,6.2,6.2,0,0,1,.39,1.63,6.42,6.42,0,0,1,0,1.21v0h-.69c-.38,0-.76,0-1.14.07s-.75.1-1.12.15a10.13,10.13,0,0,0-1.1.2c-.74.14-1.45.34-2.16.54s-1.41.45-2.1.71-1.36.54-2,.84-1.31.61-2,1h0l0,0a1.62,1.62,0,0,0-.77,1.19c-.19,1.62-.26,3.12-.29,4.67s0,3.09.14,4.62A44.06,44.06,0,0,0,124,96.44a32.43,32.43,0,0,0,1.62,4.41,27.42,27.42,0,0,0,2.28,4.14c.48.64.9,1.31,1.44,1.9l.77.91.85.85a9.48,9.48,0,0,0,.87.81l.91.78c.66.46,1.28,1,2,1.37a19.35,19.35,0,0,0,2.09,1.15l1.08.52,1.13.43a20.65,20.65,0,0,0,2.2.71l.54.15.19.06.14,0,.28.06,1.11.25c.74.15,1.48.33,2.23.48l2.24.39c.75.14,1.51.23,2.26.32s1.51.22,2.28.26l2.28.17,2.3.06c.76,0,1.53,0,2.3,0s1.53-.11,2.3-.16a34,34,0,0,0,4.57-.76c.38-.08.76-.19,1.14-.3s.75-.22,1.12-.35a14.65,14.65,0,0,0,1.61-.65,24.45,24.45,0,0,0,2.23,1.12l1.12.53,1.15.45,1.16.43.57.22.11,0-1.26,9.16c-3.69-1.07-19.64-5.09-32.59,1.45-11.28,5.7-9.39,19.47-7.72,26.07-12.74,4.15-21.53,7.94-24.19,10-8.19,6.36-10.88,22.53-10.88,22.53s-10.28,13.33-9.49,22.32,11.22,27.53,8.94,33.12S90.54,263.54,89.67,272a17.64,17.64,0,0,1-6,11.38c-5.64,4.9-6.54,6.18-9.07,10.71a19.59,19.59,0,0,0-1.89,11.8c.48,2,7.93.42,18.69,1.3,2,.16,5,0,5.51-10.64.52-11.82,4.27-16.86,4.27-16.86s11.17-4,15.36-11.44-4.12-17.89-4.12-17.89,8,2.53,9.52,14,0,29.81,21.14,34.38S171,287.22,171,287.22s11.87,1.22,19.89-6.86c0,0-4,7.41-15.4,10.18a46.77,46.77,0,0,0,5.6,9.94c4.41,5.93,9.42,11.64,9.42,11.64s-.6,7.43,2.71,11.89a4.77,4.77,0,0,0,3,1.33c6.88.65,25.31,2.13,24.6-2.06,0,0,.31-9.1-13.34-14.61L198.13,297s15.89-2.83,19.81-17.83a26.22,26.22,0,0,0,9.76-.15s7.2-3.37,8.7-8c9-1.3,13.29-1.76,14.82-7.56.85-3.17-1.66-4-2.61-6.26-2.19-5.37-3.91-6.91-13.64-8.94-10.6-2.21-16.24-11.95-16.24-11.95a21.3,21.3,0,0,0,5-6.68c2.17-4.4-4-9.32-4-9.32s9.09-.1,12.87-3.48,6.6-11,2.72-9.82-19.76.54-22.69,7.43l-4.09-5.22c17.25-4.56,12.36-23.57,9.17-17.56s-7.7,8.29-11.56,9.1a12.34,12.34,0,0,1-6.64-.34c-2.4-2.41-6.06-3.87-9.36-2.38a13.29,13.29,0,0,1-1.8.84c-1.9.57-4.37-.06-6.3-.26-3.55-3.79-10.5-4.5-15.83-2.65s-10.57,2.85-17.68-3-8-12.63-7.29-17.36c.47-3.41-1.83-2.24-1.83-2.24-9.86,11-4.34,23-.21,27,3,2.87,2,3.63,2,3.63-4,2.16-11.54-2.72-21.29-2.87s-11,3.67-11,3.67,3.53,12.35,13.09,16.07,14.54,1.84,16.83,6.19-14.15,47.84,53.33,40.43c-2.3,1.21-18.47,8.94-40.79.94-24.12-8.64-16.65-38-16.65-38s-.37-3.12-8.91-3.31-19.34-8.5-22.35-22.51c0,0,4.1-13.28,30-5.14,0,0-11.83-14.92,6-30.9,6-5.36,6.27-1,6.27-1-2.79,11.59.54,17,4.94,20.84,4.94,4.36,10.07,4.23,18.24,2.56s15.41,3.41,15.41,3.41l3.39.34A15,15,0,0,1,202.42,196c12.77.17,14.64-13.57,17.08-12.87s3.74,3.59,3.74,3.59c3.53,7.9-.22,17.79-.22,17.79s7.46-1.52,11.1-1.37a67.84,67.84,0,0,0,8.73-.48c-2.34,20.55-16,21.08-16,21.08,4.64,4.94-3.12,13.73-3.12,13.73,6.72,8,16.09,6.79,22.29,9.83S251.5,254,251.5,254c5.67-1.82,14.91-8.41,14.91-8.41-14.57-14.85-6.76-30.84-1.37-43.31s16.37-36,16.37-36-3.05,13.05-12.37,37.1-4,32.14,2.2,38.6c24.07,15.83,53.16,2.72,54.95,5.3s-9.5,22.78-9.5,22.78a91.13,91.13,0,0,0-16.36,14.76c-7.78,9.42-12.14,15.81-5,16.35,8.38.63,22.77.92,27.5-.65,3.77-1.25,1-10.32,1-10.32a12.3,12.3,0,0,0,7.1-5.77c2.22-4.38-1.59-8.73-1.59-8.73a177.13,177.13,0,0,1,23.43-27.06c14.41-13.59,18-21.79,14.61-25.56s-9.69-2.37-17-1.41-12.11,1.16-12.11,1.16c3.11-3.77,7.11-11.41,10.85-20.21,2.3-.3,4.92-.64,7.08-.9,5.08-.62,7.76,7.13,17.83,4.74s11.57-11,11.57-11,4.35,5,9.64-.37,7.3-22,10.68-29.51C409.63,157.45,413.48,154.42,413.08,154ZM182.28,82.25l.15.31a7.33,7.33,0,0,0,.51.91,20.52,20.52,0,0,0,5.25,5.81,28.12,28.12,0,0,0,5.95,3.48A38.79,38.79,0,0,0,199,94.51l-.12,0c-1,.32-2,.55-2.88.9-.44.16-.87.31-1.26.47l-1.12.49c-.7.31-1.3.63-1.79.89s-.88.5-1.17.69l-.39.26-.1.09-.29-.36a21.09,21.09,0,0,0-3.76-3.36,26.06,26.06,0,0,0-3.8-2.22,29.68,29.68,0,0,0-2.88-1.2l-.87-.28-.33-.09-.27-.06h0A18.08,18.08,0,0,0,176.64,87a10.28,10.28,0,0,0-1.5-2.32,5.38,5.38,0,0,0-2.87-1.78l-.24,0-.07,0h-.19l-.22,0c0-.11,0-.22.08-.33s.07-.5.1-.77a10.92,10.92,0,0,0,0-1.62c0-.22,0-.43-.05-.64C175.29,80.5,178.86,81.44,182.28,82.25Zm-40.23-25h0s0,0,0,0l.19-.1a2.47,2.47,0,0,1,.84-.17,2.23,2.23,0,0,1,.56.06,2.19,2.19,0,0,1,.62.3l.08.05h0s.08.08-.07-.08l.08.08.1.09s0,0,0,0,.1.11.15.2a3.4,3.4,0,0,1,.29.9,11.5,11.5,0,0,1,.15,2.29c0,.77-.08,1.5-.15,2.13,0,.35-.08.67-.12,1l0,0c-.32,1.76-1.56,1.73-2.14,1.09a3.94,3.94,0,0,1-.5-2.36h0c0-.51,0-1.15,0-1.92a22.57,22.57,0,0,0-.26-3.17l0-.19Zm-5.75.6c0-.13,0-.26,0-.4a2.6,2.6,0,0,1,.83-1.6,2.12,2.12,0,0,1,.44-.3l.13-.06,0,0h0c-.11,0,0,0-.05,0h0l.11,0h0s0,0,.05,0,.1,0,.16,0a.71.71,0,0,1,.29.16,3.62,3.62,0,0,1,.74,1.07c.12.26.23.54.34.82a14.37,14.37,0,0,1,1.06,4.47c0,.19,0,.37,0,.55,0,1-.37,1.78-1.19,1.64-2.07-.34-2.91-4.19-2.91-4.19v0h0v0A4.23,4.23,0,0,1,136.3,57.82ZM213,223.88c2.44-1.87,5.33-.32,6.5,1.5-1.17-.26-2.5.16-3.59,1.82-1.5,2.28-.06,4.51.6,5.34a10.61,10.61,0,0,1-1.52,1.13c-3.56,2.12-4.34-1.13-4.34-1.13S209.84,226.29,213,223.88Zm-79.81-11.8c-6.41.71-8.87-.39-13.79-3.81a15.93,15.93,0,0,0,9.37,1.82c5.54-.58,12,.19,12.19,6.1C141,216.19,138.51,211.49,133.19,212.08Zm58.62,24.14c-.42.3-5.05,1.1-7.07,1.54-2.33.51-5,1.74-7.34,1.43a9.31,9.31,0,0,1-6-3c-5.06-5.86-4.87-13.29-3.23-14.52,3-2.24,10.65.49,14.27,4.2-3.93,1.16-9.11,3.45-8.21,7.36,0,0,.23,1.05,2.2.8s8-2.93,15.5-.44C192.82,234.41,193.08,235.34,191.81,236.22Zm9.73-103c2.13-.08,4.25-.23,6.36-.47.74-.07,1.5-.17,2.25-.27,0,0,0,.07,0,.11,0,.29.09.67.16,1.11a1.19,1.19,0,0,1-.07.58c-.78.94-6.58,3.63-13.79,4.39a3.55,3.55,0,0,1-2.91-.82c-1.3-1.15-1.93-3.29-2.21-5A70.93,70.93,0,0,0,201.54,133.18Zm-24.27-4,.43.22c.52.24,1,.45,1.55.66,1,.4,2.08.75,3.13,1.06,1.58.45,3.17.81,4.76,1.1a17.81,17.81,0,0,0,1.32,5.25c-4.13,1-10.61-.27-12.35-3.2C175,132.4,176.25,130.38,177.27,129.19Zm-19.05,11.65-.64-.23-.7-.31c-.49-.24-1-.51-1.52-.81a30,30,0,0,1-2.74-1.86c-.72-.55-1.17-.95-1.17-.95a.41.41,0,0,0-.51,0,.39.39,0,0,0-.07.56s.39.5,1,1.2a29.07,29.07,0,0,0,2.43,2.47c.48.43,1,.84,1.47,1.21l.73.51.41.25a20.22,20.22,0,0,0-1.27,2h-.11l-1,0-1.17-.06-1.32-.18c-.45-.09-.93-.18-1.41-.29s-1-.24-1.46-.39c-1-.3-1.94-.63-2.84-1s-1.71-.72-2.42-1c-1.4-.67-2.29-1.19-2.29-1.19a.3.3,0,0,0-.39.08.29.29,0,0,0,.06.42s.84.64,2.17,1.5c.67.42,1.45.91,2.33,1.39s1.82,1,2.8,1.4c.48.23,1,.42,1.49.62s1,.34,1.48.51l1.45.38,1.34.25h.15c-.1.29-.2.58-.29.88-6.07,1.6-11.69,3.25-16.76,4.85-1.52-6-3.16-18,6.36-22.81,11-5.55,24.86-2.75,29.6-1.53a8.07,8.07,0,0,0-1.18,4.21c-2.22.67-9,3-13.73,8ZM165,161.71c-4.89-2.57-7.61-6.25-7.29-9.84.91-10.24,13.86-14.49,16-15.12,2,2.48,5.76,4,9.61,4.37a17.26,17.26,0,0,0,7.13-.66l.4.4a7.36,7.36,0,0,0,4.23,1.84,8.72,8.72,0,0,0,1.84,0,44.15,44.15,0,0,0,11.33-2.75,6.24,6.24,0,0,1-.14.64c-.11.27-.22.57-.34.9l-.54,1-.74,1c-.32.34-.62.71-1,1.06l-.58.53a4.66,4.66,0,0,1-.62.53,14.24,14.24,0,0,1-1.41,1c-.25.16-.5.34-.76.5l-.82.48a37.73,37.73,0,0,1-3.54,1.79c-1.26.55-2.56,1.08-3.9,1.55-1,.35-2,.68-3,1-.45,0-1.05.05-1.74.06-.42,0-.88,0-1.36,0s-1-.06-1.51-.13-1.06-.14-1.61-.22-1.09-.24-1.64-.36-1.08-.31-1.6-.49-1-.38-1.49-.63a12.64,12.64,0,0,1-1.32-.74,10.23,10.23,0,0,1-1.11-.78l-.88-.76c-.25-.23-.43-.48-.6-.66-.33-.37-.51-.59-.51-.59l0,0a.37.37,0,0,0-.48-.07.38.38,0,0,0-.11.52l.46.7c.15.22.31.51.54.8l.83,1a13.7,13.7,0,0,0,1.09,1,12,12,0,0,0,1.34,1,16.48,16.48,0,0,0,1.54.92c.53.29,1.1.54,1.67.8s1.12.45,1.69.62c-1.93.48-3.74.88-5.36,1.23-2.12.44-3.9.82-5.15,1l-2,.36a.45.45,0,0,0-.35.4.42.42,0,0,0,.4.44s.75,0,2,0,3.13,0,5.33-.19c1.1-.07,2.29-.18,3.56-.31s2.58-.31,3.95-.52,2.79-.46,4.22-.78l1.27-.29H192a1,1,0,0,0,.24,0,1,1,0,0,0,.17,0l.2-.05a1.64,1.64,0,0,0,.3-.14l.26-.07.14,0c1.48-.39,3.22-.93,5.11-1.63,1.19-.45,2.43-1,3.69-1.56.41-.19.83-.39,1.25-.61a9.75,9.75,0,0,1-2.57,5.67.57.57,0,0,0-.11.11,10.59,10.59,0,0,1-3.1,2.19C186.05,166.59,173,165.9,165,161.71Zm43.75,10.74c-1.41,2.59-2.47,1.8-6.9,5s-7.9,3.52-6.5.93,4.43-7.54,4.46-10c0-1.84-1.95-3.26-3-3.9a41.29,41.29,0,0,0,6.4-4.22c2.16,1.5,3.58,7,3.58,7S210.13,169.85,208.72,172.45Zm11-29.77c-3.64-2.3-4.91-7.16-5.32-9.58a10.5,10.5,0,0,0-.17-1.2.28.28,0,0,1,0-.08h0a44.58,44.58,0,0,0,7.25-1.94c1.82,3.57,6,7.6,8.81,10C227.07,141.27,222.54,142.87,219.71,142.68Zm22.4-7.06q-5.1,0-10.21.24c-1-1-2.14-2-3.18-3.11a98.81,98.81,0,0,0,15-7A36.88,36.88,0,0,0,242.11,135.62Zm102.64,4.1a35.84,35.84,0,0,1,8.67-7.46c11.63-6.51,12.93-2.44,7.08,9.47a56.24,56.24,0,0,1-4.77,8A41.36,41.36,0,0,0,344.75,139.72Zm-161.34-64c0-.13,0-.26,0-.39a12.14,12.14,0,0,1,.15-1.8,15.73,15.73,0,0,1,.43-1.77,14.63,14.63,0,0,1,.67-1.7,14.16,14.16,0,0,1,.91-1.61,15.57,15.57,0,0,1,1.09-1.51,18.09,18.09,0,0,1,1.27-1.36,15.79,15.79,0,0,1,1.38-1.23c.24-.19.44-.38.72-.57l.82-.56.41-.29.36-.21.83-.48,1.62-.94.9-.42a2.09,2.09,0,0,0,0,.34,4,4,0,0,0,.53,1.37,4.15,4.15,0,0,0,.52.67,3.8,3.8,0,0,0,.66.6,4.52,4.52,0,0,0,.76.46l.14.06-.89.32L195.6,65a4.05,4.05,0,0,0-2.48,4.87,4.68,4.68,0,0,0,1.22,2A6.78,6.78,0,0,0,195.81,73a11.91,11.91,0,0,0,1.21.56,8.35,8.35,0,0,0,.8.27l.28.09a.57.57,0,0,0,.4-1.06h0l-.25-.11q-.25-.1-.69-.33a6.59,6.59,0,0,1-2-1.56,3,3,0,0,1-.63-1.32,2,2,0,0,1,.29-1.39,1.88,1.88,0,0,1,1.08-.83l1.13-.23c.4-.08.8-.17,1.2-.28A24.46,24.46,0,0,0,201,66a12.18,12.18,0,0,0,2.34-1.17,5.69,5.69,0,0,0,1.13-1c.09-.11.17-.2.27-.34l.15-.23.1-.2.07-.11v0l.06-.13,0-.09c0-.12.1-.24.14-.37a4.38,4.38,0,0,0-.19-3.1,6.11,6.11,0,0,0-1-1.49h0a44,44,0,0,1,6.22-.8c1,0,1.9-.06,2.79-.06l.68,0a26.62,26.62,0,0,1-5.4-3.35,42.28,42.28,0,0,0-5,.88l-1.78.42-1.8.55c-1.22.33-2.4.87-3.63,1.34a19.61,19.61,0,0,0-1.81.84l-1.81.9-1.74,1.07-.88.54-.38.24-.1.06-.4.29-.81.58c-.28.2-.57.46-.85.68a19,19,0,0,0-1.61,1.47c-.52.51-1,1.07-1.46,1.63a20.69,20.69,0,0,0-1.26,1.8,16.61,16.61,0,0,0-1.06,2,15.25,15.25,0,0,0-.77,2.08,16.38,16.38,0,0,0-.5,2.18c-.06.54-.12,1.07-.15,1.61Q182,75.21,183.41,75.67Zm14-15.94,1.7-.63a2.22,2.22,0,0,0,.49.3l.1,0h0l.13.05c.13,0,.32.13.56.25a6.07,6.07,0,0,1,.76.47,3,3,0,0,1,.64.63.82.82,0,0,1,.17.62.45.45,0,0,1,0,.11v0h0c.07-.17,0,0,0-.08h0v0l-.05.12s0,0,0,0h0a.73.73,0,0,0,0,.09,2.39,2.39,0,0,1-.45.5,8.13,8.13,0,0,1-1.08.76,1.67,1.67,0,0,0-.24-.16c-.13-.1-.29-.17-.43-.28s-.3-.19-.45-.31-.3-.2-.43-.32a5,5,0,0,1-.43-.35l-1.65-1.39-.2-.16A7.74,7.74,0,0,1,197.44,59.73Zm43.75,48a36.76,36.76,0,0,1-5.92,8.63c1.51-.09,3.26-.16,5.09-.18a40.09,40.09,0,0,0,4.26-6.76,26.78,26.78,0,0,0,2.27-6.34,10.8,10.8,0,0,0,.21-1.88c0-.17,0-.35,0-.54A5.59,5.59,0,0,0,247,100l0-.21,0-.11,0-.09,0-.12,0-.1a4.71,4.71,0,0,0-.21-.52,13.88,13.88,0,0,0-2-3A49,49,0,0,0,240,91.17c-1.28-1.15-2.58-2.24-3.92-3.31a10.67,10.67,0,0,0,.62-1,7.39,7.39,0,0,0,1.05-4.25,5.7,5.7,0,0,0-2.54-4.23,5.21,5.21,0,0,0-2.42-.77,6.39,6.39,0,0,0-2.26.25,9.44,9.44,0,0,0-3.5,1.9A13.93,13.93,0,0,0,225.77,81a10.06,10.06,0,0,1-.91.94,18.13,18.13,0,0,1-2.06,1.57c-.67.48-1.33.86-1.92,1.22l-1.55.89L218,86.4a.47.47,0,0,0,.27.89,14.63,14.63,0,0,0,1.61-.29A22.57,22.57,0,0,0,224,85.67a16.94,16.94,0,0,0,2.63-1.44A14.12,14.12,0,0,0,228,83.16a9.38,9.38,0,0,1,1.06-.91,6.26,6.26,0,0,1,2.37-1.14,2.45,2.45,0,0,1,1.94.25,1.7,1.7,0,0,1,.55.67,1.64,1.64,0,0,1,.22.84A4.23,4.23,0,0,1,233.4,85a6.65,6.65,0,0,1-1.61,1.76,5.91,5.91,0,0,1-1.82,1,4.42,4.42,0,0,1-2.82,0,3.28,3.28,0,0,1-.45-.17l-.33-.15-.27-.14-.16-.08a2,2,0,0,0-2.49.5l-.06,0a14.16,14.16,0,0,1-6,5.63,12.48,12.48,0,0,1,3.36,2,17.39,17.39,0,0,0,4.27-4h0a7.61,7.61,0,0,0,.81.32,8.39,8.39,0,0,0,2.34.42,8.62,8.62,0,0,0,3-.43,9.25,9.25,0,0,0,1.83-.87c1.46,1.12,2.91,2.29,4.3,3.5a45.52,45.52,0,0,1,4.26,4.17,11,11,0,0,1,1.49,2.1l.08.21v.06a.45.45,0,0,1,0,.08v0c0-.06,0,.07,0,.11s0,.15,0,.24a7.1,7.1,0,0,1-.15,1.22A22.38,22.38,0,0,1,241.19,107.71ZM149.7,99.78c-.39.35-.8.65-1.15,1a11.53,11.53,0,0,0-1,1.06,11.76,11.76,0,0,0-.87,1.08,11,11,0,0,0-.69,1l-.51.91-.32.74-.27.65a.39.39,0,0,0,.17.48.38.38,0,0,0,.53-.14l0,0s.11-.21.32-.57c.11-.18.23-.4.38-.64l.57-.78a9.22,9.22,0,0,1,.74-.86,9.53,9.53,0,0,1,.91-.88,11.26,11.26,0,0,1,1.06-.85,13.8,13.8,0,0,1,1.16-.78c.4-.24.81-.47,1.21-.69s.82-.41,1.23-.58c.62-.27,1.22-.49,1.77-.68-.32-.69-.61-1.42-.88-2.19-.58.29-1.21.6-1.86,1-.42.23-.83.52-1.25.79ZM218,68.84a4.43,4.43,0,0,1,.62.6,3.25,3.25,0,0,1,.45.58l.33.51.18.43.17.35,0,.1a2.63,2.63,0,0,0,.49.72A2.56,2.56,0,0,0,224,68.55l-.5-.52-.59-.58-.84-.64a8.1,8.1,0,0,0-1.05-.63,6.76,6.76,0,0,0-1.22-.55,8.42,8.42,0,0,0-1.32-.41,12.74,12.74,0,0,0-1.35-.24,14.32,14.32,0,0,0-2.6-.06c-.41,0-.8.07-1.16.12s-.7.12-1,.17a14.19,14.19,0,0,0-2,.55.34.34,0,0,0,.12.67,13.49,13.49,0,0,1,2,.14c.29.05.6.09.92.16s.67.14,1,.24a12.41,12.41,0,0,1,2,.76,9.84,9.84,0,0,1,.91.52A5.79,5.79,0,0,1,218,68.84ZM215.49,74s-.15-.11-.4-.26a4.06,4.06,0,0,0-.43-.26c-.17-.07-.34-.23-.53-.33s-.39-.22-.58-.36-.4-.25-.6-.4-.4-.26-.59-.43-.39-.29-.58-.45a3.11,3.11,0,0,0-.28-.23l-.28-.25c-.2-.14-.36-.33-.56-.48l-1-.93c-.18-.14-.32-.28-.48-.4s-.28-.23-.39-.32-.37-.28-.37-.29a.36.36,0,0,0-.21-.36.38.38,0,0,0-.5.19l-.19.41s0,0,0,.14-.05.24-.07.4a4.88,4.88,0,0,0,.08,1.37,5.31,5.31,0,0,0,.26.87,6.58,6.58,0,0,0,.46.92,6.91,6.91,0,0,0,.68.88l.4.41.46.35a5.08,5.08,0,0,0,1,.61,5.3,5.3,0,0,0,1,.4,6.71,6.71,0,0,0,1,.19,4,4,0,0,0,.91,0,3.38,3.38,0,0,0,.75-.11c.22,0,.41-.12.56-.16a4.61,4.61,0,0,0,.47-.19.7.7,0,0,0,.19-.15.55.55,0,0,0-.1-.75Zm-4.36-21,.42.25a29.25,29.25,0,0,0,9,3.31s0,.37,0,.94a8.58,8.58,0,0,0,1.46,5.2c.23.28,1.63-.86,4.1-1.63a14.69,14.69,0,0,0-1,7c.33,1.29,2.48-1.83,7.94-3.87a30.23,30.23,0,0,1-1.26,10.6.5.5,0,0,0,0,.45c1.06.08,5.65.59,7.89,3.33,1.38,1.7.94,4.24.26,6.22a6,6,0,0,0,3.62-4A62.13,62.13,0,0,0,245,70a16.18,16.18,0,0,0-.67-5.38l.06,0-.23-.39-.55-.92L242.79,62a15.08,15.08,0,0,1,2.8,1.92A20.9,20.9,0,0,1,252,62.35c1,1.64,2.78,1.77,4.7,1.45a.83.83,0,0,0,.55-.91,18.67,18.67,0,0,1,.33-6c.57-1.78-7.4-2.48-15.83,3.94-2.42-3.09-5.66-6.74-7.81-7.85-3.9-2-10.46-.73-18.75-3.39-6.3-2-7.73-2.85-7.18-.48C208,49.15,208.49,51,211.13,53.05Zm35.3-9.2a8.79,8.79,0,0,0-.81,3.4l-.28.23a3.55,3.55,0,0,0-3.91-.55c-2.27,1.23-1.2,4.16-1.2,4.16s-2,2.45-1.88,3.24c0,0,.4.41.92,1s1.14,1.32,1.64,2c.14.19.26.37.37.54a.66.66,0,0,0,.28-.05,2.93,2.93,0,0,0,.89-.72c.54-.54,1.16-1,1.74-1.55a40.48,40.48,0,0,1,6.16-4.34c4.07-2.33,5.8-3.12,5.8-3.12"/><path d="M163.72,348.4a7,7,0,0,1-1.68.84,8.16,8.16,0,0,1-1.66.4,12.24,12.24,0,0,1-1.56.12c-.49,0-1,0-1.41,0a6.17,6.17,0,0,1-1.69-.2,4.84,4.84,0,0,1-1.28-.55,3.47,3.47,0,0,1-.9-.78,4.85,4.85,0,0,1-.59-.91,6.22,6.22,0,0,1-.64-2.39q5.34-2.69,11.05-4.93a65.34,65.34,0,0,1,11.78-3.38l2.52-.45a8,8,0,0,1,2.11-.15,2.46,2.46,0,0,1,1.44.52,1.92,1.92,0,0,1,.55,1.52,9.91,9.91,0,0,1-.39,3.34,3.51,3.51,0,0,1-1.2,1.7,6.06,6.06,0,0,1-1.93.91,18.45,18.45,0,0,0-2.56,1q-.42,1.69-1,4.53c-.4,1.88-.89,4-1.46,6.43s-1.21,5-1.94,7.82-1.57,5.73-2.53,8.73-2,6.06-3.21,9.15-2.51,6.11-4,9.06a84.21,84.21,0,0,1-4.81,8.52,55.58,55.58,0,0,1-5.77,7.48,41.86,41.86,0,0,1-6.79,6,29.92,29.92,0,0,1-7.92,3.94,9.23,9.23,0,0,1-2.58.45,9.52,9.52,0,0,1-2.76-.27,5,5,0,0,1-2.13-1.08,2.37,2.37,0,0,1-.76-2.07c0-.24.26-.53.74-.86a18.53,18.53,0,0,1,1.67-1c.64-.34,1.27-.65,1.91-.94s1.13-.54,1.47-.73a27.61,27.61,0,0,0,4-2.68,26.24,26.24,0,0,0,3-2.9c.91-1,1.78-2.08,2.61-3.2s1.73-2.34,2.71-3.65a41.65,41.65,0,0,0,3.36-5.4q1.59-3,3-6.42c.92-2.27,1.8-4.62,2.61-7.05s1.58-4.85,2.29-7.26,1.37-4.76,2-7.05,1.17-4.46,1.68-6.48,1-3.86,1.43-5.52S163.37,349.49,163.72,348.4Z"/><path d="M209.78,398.49a12.89,12.89,0,0,1-3.85-.43,7.56,7.56,0,0,1-2.69-1.35,7,7,0,0,1-1.75-2.1,12.78,12.78,0,0,1-1.07-2.6,21.84,21.84,0,0,1-.66-2.92c-.16-1-.32-2-.47-3-1.17-.15-2.4-.27-3.69-.34s-2.59-.12-3.91-.14-2.62,0-3.9,0-2.49.07-3.63.14c-.5,1-1.12,2.14-1.83,3.48s-1.46,2.74-2.22,4.19-1.5,2.9-2.2,4.36-.92,2-1.42,3.19a1.24,1.24,0,0,1-1.66.48,10.77,10.77,0,0,0-2.68-.69c-1.38-.12-5.38-.7-4.11-3q.9-2,2.34-4.67c1-1.82,2.09-3.83,3.37-6s2.7-4.55,4.24-7,3.18-5.06,4.93-7.71,3.56-5.33,5.45-8.06,3.83-5.41,5.81-8.06,4-5.24,6-7.76,4-4.88,6-7.09a12.23,12.23,0,0,1,2-.05,17.27,17.27,0,0,1,2.16.26,9.2,9.2,0,0,1,1.66.46c.44.18.64.35.62.52-.49,3.22-1,6.61-1.39,10.18s-.78,7.15-1,10.76-.35,7.19-.34,10.73a82.67,82.67,0,0,0,.62,10.08c.14,1.09.32,2.2.54,3.32s.43,2.21.62,3.26.33,2,.44,3a9.75,9.75,0,0,1,0,2.42,2.93,2.93,0,0,1-.72,1.64A2.23,2.23,0,0,1,209.78,398.49Zm-11-18.31c.05-.51.12-1.3.22-2.38s.21-2.31.35-3.67.27-2.79.43-4.29.32-2.91.47-4.23.32-2.47.48-3.47a8.69,8.69,0,0,1,.47-2,19.48,19.48,0,0,0-1.65,2.05q-1,1.32-2.1,3T195,368.78l-2.59,3.9q-1.31,2-2.62,3.86t-2.52,3.5Z"/><path d="M249.05,368.37a55.9,55.9,0,0,0,2.94,5.07c1.1,1.72,2.31,3.4,3.61,5.06a62.72,62.72,0,0,0,4.15,4.79,44.59,44.59,0,0,0,4.61,4.23,41.11,41.11,0,0,0,5,3.41,26.19,26.19,0,0,0,5.22,2.33,7,7,0,0,1,1.34.56,4.67,4.67,0,0,1,.88.68,4.88,4.88,0,0,1,.69.93c.2.37.44.81.69,1.32-.37.09-.75.16-1.13.23s-.77.12-1.15.16a18.81,18.81,0,0,1-8.59-1.12,33.47,33.47,0,0,1-8.45-4.7,59.48,59.48,0,0,1-8.14-7.48,105,105,0,0,1-7.67-9.47l-8.72,8.48c-.36,1.64-.69,3.37-1,5.18s-.58,3.61-.86,5.38-.6,3.47-.95,5.09a29.11,29.11,0,0,1-1.24,4.31,10.51,10.51,0,0,1-1.7,3.06,3.57,3.57,0,0,1-2.4,1.33,8.69,8.69,0,0,1-2.18-.08,12,12,0,0,1-2.41-.61,7,7,0,0,1-2-1.09,2.2,2.2,0,0,1-.94-1.53,21,21,0,0,1,.06-4q.21-2.53.72-5.79c.34-2.18.75-4.55,1.24-7.13s1-5.25,1.61-8,1.21-5.57,1.84-8.43,1.28-5.64,1.92-8.36,1.24-5.35,1.83-7.87,1.12-4.81,1.61-6.89a8.35,8.35,0,0,1,1.79-3.89,4.25,4.25,0,0,1,2.63-1.38,4,4,0,0,1,2.41.52,9.34,9.34,0,0,1,2,1.56,9.66,9.66,0,0,1,1.43,1.84,4.31,4.31,0,0,1,.58,1.35,10.54,10.54,0,0,1-.1,2.35c-.13,1-.32,2.11-.57,3.34s-.53,2.55-.86,3.92-.65,2.73-1,4.05l-.92,3.8c-.28,1.21-.51,2.27-.68,3.18q1.11-1,2.64-2.52t3.33-3.46l3.78-4q2-2.12,4-4.2t4-4c1.31-1.27,2.57-2.4,3.76-3.38a28.91,28.91,0,0,1,3.33-2.41,6.9,6.9,0,0,1,2.67-1,5.4,5.4,0,0,1,1.57.09,6.56,6.56,0,0,1,1.68.58,5,5,0,0,1,1.39,1,2.46,2.46,0,0,1,.68,1.43,1.43,1.43,0,0,1-.2.83,5.36,5.36,0,0,1-.64.93c-.27.33-.56.65-.87,1s-.62.65-.93,1q-4.41,4.61-8.8,9.09T249.05,368.37Z"/><path d="M305,393.2a12.81,12.81,0,0,1-3.85-.46,7.84,7.84,0,0,1-2.67-1.38,6.86,6.86,0,0,1-1.73-2.11,12.5,12.5,0,0,1-1.05-2.61,22.34,22.34,0,0,1-.63-2.93c-.15-1-.3-2-.44-3-1.17-.17-2.4-.3-3.69-.38s-2.59-.15-3.91-.18-2.62-.05-3.9,0-2.49.05-3.63.11c-.51,1-1.13,2.13-1.87,3.46s-1.48,2.72-2.26,4.17-1.52,2.89-2.24,4.33-.82,1.58-1.33,2.77a5.77,5.77,0,0,1-1.72-.49c-.65-.25-1.44.78-2.25.36s-1.64-.88-2.47-1.37-1.53-.94-2.09-1.35q.92-1.94,2.38-4.65c1-1.81,2.13-3.81,3.43-6s2.74-4.52,4.31-7,3.23-5,5-7.66,3.61-5.3,5.53-8,3.88-5.37,5.89-8,4-5.2,6.08-7.7,4.07-4.84,6.09-7a11.4,11.4,0,0,1,2,0,18.73,18.73,0,0,1,2.15.28,8.84,8.84,0,0,1,1.66.48c.44.18.64.36.62.53q-.78,4.82-1.49,10.16c-.47,3.56-.85,7.14-1.12,10.75s-.42,7.18-.45,10.73a81.21,81.21,0,0,0,.53,10.08c.12,1.09.29,2.2.5,3.33s.41,2.22.59,3.27.31,2,.41,2.95a9.22,9.22,0,0,1,0,2.42,2.94,2.94,0,0,1-.73,1.63A2.29,2.29,0,0,1,305,393.2Zm-10.86-18.42c.06-.5.14-1.29.25-2.37s.23-2.3.38-3.66.3-2.79.47-4.29.35-2.91.52-4.23.34-2.47.5-3.46a9.54,9.54,0,0,1,.49-2,22.65,22.65,0,0,0-1.66,2c-.65.88-1.36,1.87-2.13,3s-1.59,2.31-2.46,3.58-1.75,2.57-2.64,3.88-1.76,2.58-2.65,3.83-1.74,2.42-2.56,3.48Z"/></g></g></svg>