<svg xmlns="http://www.w3.org/2000/svg" viewBox="0 0 478.41 478.63"><g id="Capa_2" data-name="Capa 2"><g id="Capa_1-2" data-name="Capa 1"><path d="M1.3,263.45c0-13.27-.14-26.55,0-39.82.13-8.77-.11-17.67,1.31-26.26a186,186,0,0,1,8-32.3A369.63,369.63,0,0,1,29,121.55C37.62,104.73,48,88.92,61.21,75.07a264.08,264.08,0,0,1,48-39A223.53,223.53,0,0,1,163,11.11a179.17,179.17,0,0,1,31.87-7.28C210.3,1.9,225.93,1.36,241.5.37A183.91,183.91,0,0,1,291.66,4c12.71,2.71,25.47,5.77,37.67,10.16C338,17.32,345.94,22.72,354,27.46c9.77,5.74,19.63,11.41,28.86,17.94a175,175,0,0,1,21.46,18.13A294.64,294.64,0,0,1,427.4,88.76a273.74,273.74,0,0,1,20.31,28.73,238.41,238.41,0,0,1,16,30.85,133.68,133.68,0,0,1,8.13,27.15c2.66,14.1,4.47,28.4,6,42.68.87,8.25.5,16.63.59,25,.19,19.67-1.89,39.18-5.06,58.55-1.08,6.65-3.74,13-5.5,19.59-3.94,14.68-11.35,27.78-19.56,40.27a470.27,470.27,0,0,1-30,41c-6.32,7.65-14.6,13.74-22.2,20.29a183.8,183.8,0,0,1-17.26,13.66,239.5,239.5,0,0,1-42.28,22.45c-16.43,6.79-33.43,10.92-50.67,14a444.59,444.59,0,0,1-47.21,5.55c-8.53.61-17.28-.47-25.83-1.55-10-1.25-19.92-3-29.74-5.14a233.48,233.48,0,0,1-47.15-15.62c-5.41-2.46-11-4.43-16.36-7.08a165.62,165.62,0,0,1-16.92-9.58,155.78,155.78,0,0,1-17-12.65c-7.42-6.49-14.34-13.56-21.48-20.37a127,127,0,0,1-18.76-22.33c-5.85-8.92-12.4-17.4-18.07-26.43a98.32,98.32,0,0,1-9-18.13C14,327.88,10.09,316,6.69,304c-2-7-2.72-14.46-3.9-21.73-1-6.22-1.87-12.48-2.79-18.72Zm255,199.45c18.07-.38,33-3.88,47.73-7.62,9.7-2.46,19.1-6.11,28.6-9.34,3.61-1.23,7.36-2.35,10.63-4.24,8-4.66,15.92-9.58,23.68-14.67,16.26-10.68,31.55-22.56,43.74-37.91,6.57-8.29,13.13-16.62,19.14-25.31a186.81,186.81,0,0,0,12.74-21.51,130.8,130.8,0,0,0,9.27-22.21,158.93,158.93,0,0,0,4.79-25.2c2-16.49,4.1-33,5.09-49.57a166.46,166.46,0,0,0-1.25-31.47c-2-15.46-3.26-31.06-9.45-45.85-5.26-12.58-7.66-26.34-14.56-38.28-5.37-9.29-10.75-18.74-17.45-27-7.82-9.7-17.13-18.18-25.7-27.29-12.22-13-26.37-23.69-41.28-33.17a165,165,0,0,0-51.67-21.36,213.51,213.51,0,0,0-30.47-4.73c-10.26-.84-20.65.07-30.94-.54-13.45-.81-26.57,1.18-39.73,3.3-8.62,1.39-17.26,2.74-25.85,4.32-4.84.89-10,1.39-14.33,3.49-11.56,5.6-22.7,12.09-34.11,18-17,8.83-30.41,22.17-44.52,34.62A88.82,88.82,0,0,0,67.79,93.49c-5.13,7-9.73,14.43-14.32,21.82a96.18,96.18,0,0,0-6.25,12q-4.41,10-8.24,20.33c-1.07,2.85-1.23,5.5-3.64,8.36-4.05,4.82-6.16,11.43-8.43,17.53-2.14,5.76-3.43,11.82-5.09,17.75-.77,2.75-1.9,5.45-2.21,8.25-.48,4.48-.37,9-.59,13.53-.52,10.41-1.16,20.81-1.62,31.23-.25,5.48,0,11-.42,16.45-.34,4.76-2.05,9.53-1.73,14.21.45,6.56,2.16,13.05,3.44,19.55a181.37,181.37,0,0,0,21,55.89c4.58,7.95,9.56,15.71,14.77,23.26,4.8,6.94,9.48,14.2,15.46,20,7.44,7.25,16.29,13,24.31,19.72,18.62,15.53,40.07,26.21,62.36,34.91,13.09,5.1,27.22,7.66,41,10.83,7.66,1.77,15.56,2.58,23.38,3.59A107.28,107.28,0,0,0,236.06,464C243.7,463.87,251.32,463.18,256.27,462.9Z"/><path d="M288.71,266.09l-2.28,13.21s-8.2,8.66-13.89,16.18-7.3,9.33-.32,9.33c12.76,0,16.88.75,21-1.13,3-1.37,1.14-10.25,1.14-10.25a10.53,10.53,0,0,0,6.38-4.56c1.84-2.84-.46-8.88-.46-8.88l4.35-9.72A45.33,45.33,0,0,1,288.71,266.09Zm140.63-96.27c-.88-.83-2.58.32-9.92,8.6-6.93,7.82-7.69,10.15-13.45,9.38-4.54-.6-8.71,2.32-10.75,4.39a25,25,0,0,0-3.36,4.3s-3.9-6.55-8.75-3.48c-5.29,3.36-7.69,10.07-12.69,12.17,3.32-9.55,5.78-18.93,6.14-25.21a20.51,20.51,0,0,0-2.21-10.35c9.16-10.59,18.58-28.66,12.81-33.78-6.71-6-20.53-3.08-28.14.77-3.57,1.81-7.75,4.34-10.63,6.14-14.27-5.6-36.22-1.33-36.22-1.33-25.07-6.7-50.14,10-50.14,10h-1.38c0-5.44,2.6-12.49,2.62-12.57a1.36,1.36,0,0,0-2-1.63,94.29,94.29,0,0,1-18.68,9.1A15.71,15.71,0,0,1,241,144c.42-.2.85-.41,1.27-.63a41.26,41.26,0,0,0,7.65-5.1l3.44.33.15,0h.17a2,2,0,0,0,.71-4l-.62,0c-1.51-.08-3.28-.13-5.25-.11l-1.65.05-1.82.09-1.21.06-1.24.12-2.53.25c-.84.07-1.68.2-2.51.32l-2.42.34c-1.56.28-3,.5-4.27.76s-2.28.46-3,.64-1.13.27-1.13.27h0a.91.91,0,0,0,.41,1.78s.42-.07,1.13-.16,1.73-.24,3-.38,2.68-.24,4.22-.39l2.39-.13c.81,0,1.64-.1,2.47-.1l2.45,0,1.21,0h.13a37.9,37.9,0,0,1-3.52,2.09A39.71,39.71,0,0,1,229.32,144l-.74.13-.75.11-1.55.23c-1,.12-2,.26-3,.35q-3,.31-6.11.4a63.48,63.48,0,0,1-12.11-.73,40.83,40.83,0,0,1-5.83-1.37c-.94-.3-1.87-.63-2.77-1-.44-.19-.88-.39-1.3-.6l0,0,1-7.48,1.26.28a24.42,24.42,0,0,0,2.42.4c.8.1,1.61.27,2.42.3l2.44.16c.81,0,1.62,0,2.43,0h1.22l1.21-.08,2.42-.18,2.4-.34,1.19-.18,1.18-.25,2.36-.51c.78-.2,1.55-.44,2.32-.65,1.56-.41,3.05-1,4.55-1.55.77-.25,1.48-.61,2.22-.92l2.19-1a.49.49,0,0,0,.26-.62.49.49,0,0,0-.63-.28h0l-2.21.83c-.73.26-1.45.57-2.21.78-1.51.44-3,.95-4.53,1.25l-2.28.51-2.31.36-1.15.18-1.17.1-2.32.2-2.32,0c-.39,0-.78,0-1.16,0l-1.16-.06c-.77-.05-1.54-.06-2.31-.14l-2.29-.29c-.77-.07-1.52-.27-2.27-.41s-1.51-.28-2.24-.5l-2.21-.62-2.15-.78-.54-.19-.52-.23-1-.47-1-.46-1-.55a35.49,35.49,0,0,1-3.83-2.37l-1.7-1.34c-.57-.48-1.15-1.06-1.73-1.59l-.37-.34-.36-.42-.73-.82a19.75,19.75,0,0,1-1.33-1.72,21.57,21.57,0,0,1-2.09-3.75c-.27-.66-.5-1.33-.72-2a19.82,19.82,0,0,1-.8-6.26c0-.35,0-.7.07-1a8.77,8.77,0,0,1,.12-1c0-.22.07-.43.11-.64l.68-.24c.72-.25,1.43-.49,2.16-.71,1.43-.45,2.88-.87,4.31-1.21.72-.16,1.44-.31,2.13-.41.37-.06.63-.08.93-.12a4.53,4.53,0,0,1,.55,0h.39a.68.68,0,0,1,.25,0v-.08s2.38,1,3.73,5.88c.15.53.28,1.11.4,1.73s.25,1.51.34,2.38l0,0c0,.1,0,.2,0,.31a25,25,0,0,1,0,4.5,21.11,21.11,0,0,1-.29,2.24c-.13.75-.3,1.47-.5,2.23a.49.49,0,0,0,.29.6.51.51,0,0,0,.65-.28h0a21.89,21.89,0,0,0,.79-2.24,23.13,23.13,0,0,0,.58-2.32,27.44,27.44,0,0,0,.53-4.79c0-.55,0-1.1,0-1.65a23.22,23.22,0,0,1,2.5.67,20.75,20.75,0,0,1,7.2,4,14.71,14.71,0,0,1,1.56,1.6c.24.28.45.58.67.87s.4.6.59.91.35.61.5.92.29.61.41.92.22.61.33.9.17.59.24.87c.14.56.25,1.09.32,1.56s.12.89.13,1.23c0,.69.05,1.08.05,1.08v0a.37.37,0,0,0,.73,0s0-.41.1-1.13c0-.36,0-.8,0-1.3s-.05-1.09-.12-1.71c0-.31-.09-.64-.14-1s-.15-.67-.23-1-.22-.71-.33-1.08-.27-.73-.42-1.1c-.07-.16-.15-.33-.23-.49a1.36,1.36,0,0,0,.37-.21s.14-.12.31-.24.45-.33.85-.59.89-.56,1.47-.88l.94-.5c.34-.17.71-.33,1.08-.5.75-.37,1.61-.64,2.5-1l1.41-.42c.25-.07.49-.15.74-.21l.76-.16,1.56-.33,1.63-.19.83-.1c.28,0,.56,0,.84,0l1.69,0c1.13,0,2.25.14,3.37.2l3.25.54,3,.82A10.88,10.88,0,0,1,236,114l1.26.48a16.79,16.79,0,0,1,2.18.93l1.64.82,1.43.72,0,0a.61.61,0,0,0,.59-1.07l-1.41-.85-1.62-1a14.69,14.69,0,0,0-1.74-.92l0,.07c-.46-.26-.93-.49-1.4-.71l-.34-.17-.06,0c-.46-.22-.93-.42-1.38-.6l-.11,0h0c-1-.41-2-.74-2.81-1l-.21-.07c-.73-.23-1.37-.4-1.89-.53l0,0-1.4-.35c-1.19-.15-2.4-.38-3.62-.48l-1.85-.09c-.3,0-.61,0-.91,0h-.14c-.58-.08-1.32-.17-2.2-.34-.57-.1-1.21-.21-1.89-.37s-1.42-.32-2.19-.55a34.64,34.64,0,0,1-5.07-1.83,25.16,25.16,0,0,1-5.39-3.26,18.12,18.12,0,0,1-3.9-4.18c10.33,2.25,18.4,3.22,19,3.28h0a2.05,2.05,0,0,0,.44-4.08c-.1,0-4.78-.57-11.54-1.82a80.28,80.28,0,0,1-8.05-1.63l-2-.46v0l-3-.77s0,.07,0,.1c-3.45-.86-7-1.85-10.51-3-1.47-2.74-4-4.88-6.93-4.67a10.05,10.05,0,0,0-3.38.8l-.05,0-.38.21-.15.09a11.4,11.4,0,0,0-1.23.8A8.13,8.13,0,0,0,172,89.32l-.08.11a8.31,8.31,0,0,0-.33.89,7.81,7.81,0,0,0-.25,1.26c0,.23,0,.46,0,.69s0,.47,0,.7a3.32,3.32,0,0,0,.13.7c.06.23.12.45.19.67a8.45,8.45,0,0,0,.62,1.16,5.44,5.44,0,0,0,.75.93,9.52,9.52,0,0,0,.76.7l.73.52a11,11,0,0,0,1.12.64l.42.22a.7.7,0,0,0,.86-1.06l-.06-.06-.27-.34a6.31,6.31,0,0,1-.68-.87c-.12-.18-.24-.38-.37-.59s-.2-.45-.31-.67a3.64,3.64,0,0,1-.19-.7,3.51,3.51,0,0,1,0-.64l.06-.29a.61.61,0,0,1,.08-.26c0-.09.06-.17.1-.24l.14-.22a3,3,0,0,1,.32-.39,3.49,3.49,0,0,1,.35-.32c.1-.09.24-.17.33-.24h0l.37-.28.37-.25a5.8,5.8,0,0,1,2.4-.83,3.61,3.61,0,0,1,3,1.67,8.43,8.43,0,0,1,1.15,1.94,9.15,9.15,0,0,1,.65,2.33,10.87,10.87,0,0,1,.3,1.15c0,.19.05.37.07.53s0,.33,0,.47h0c-.72,0-1.43.09-2.13.17-1.62.19-3.21.45-4.78.75l-2.34.49c-.79.18-1.55.35-2.36.55h0l-.16.05a2.45,2.45,0,0,0-1.57,1.69,14.12,14.12,0,0,0-.3,1.46c-.06.42-.12.83-.15,1.24h-.07c0,.56,0,1.29,0,2.16,0,.16,0,.32,0,.48a27.93,27.93,0,0,0,.55,4.55c.16.8.38,1.65.64,2.5s.47,1.44.77,2.17c.16.36.31.71.48,1.06a26.09,26.09,0,0,0,2.78,4.39,24,24,0,0,0,1.69,1.94l.9.91.45.45.09.08,0,0,.06,0,.11.1.23.19c.62.51,1.18,1,1.85,1.52l1.83,1.29c-.3.1-.61.19-.92.27s-.69.19-1,.26a34,34,0,0,1-4.28.64c-.73,0-1.45.09-2.18.11s-1.46,0-2.19,0l-2.19-.09-2.19-.2c-.73-.05-1.45-.19-2.18-.29s-1.45-.2-2.17-.35l-2.17-.41c-.72-.15-1.43-.34-2.15-.5l-1.07-.26-.27-.07-.13,0h0l-.07,0-.53-.17a15,15,0,0,1-2.06-.7l-.95-.38-.94-.47a14.84,14.84,0,0,1-1.82-1c-.6-.35-1.13-.82-1.7-1.22l-.78-.69a6.56,6.56,0,0,1-.76-.73l-.72-.75-.67-.81c-.46-.53-.83-1.13-1.24-1.7a25.67,25.67,0,0,1-2-3.74,29.53,29.53,0,0,1-1.4-4,41.41,41.41,0,0,1-1.33-8.54c-.08-1.44-.1-2.9-.05-4.35,0-1.16.11-2.35.23-3.48.33-.19.66-.38,1-.55.59-.31,1.19-.6,1.8-.88s1.22-.52,1.85-.75,1.25-.44,1.88-.6a8.26,8.26,0,0,1,.95-.24c.32-.06.64-.15,1-.18s.63-.1,1-.13l.95-.05a10.24,10.24,0,0,1,1.84.16l.22,0h.08l.1,0,.48.15.34.14.38.2A10.19,10.19,0,0,1,158,94.72a23.71,23.71,0,0,1,2.25,3.36,38.44,38.44,0,0,1,1.84,3.69c.51,1.17,1,2.38,1.4,3.59l-.27,0c-.67.13-1.33.34-2,.52s-1.3.44-1.94.66-1.24.51-1.83.76-1.13.56-1.66.82-1,.57-1.43.82-.85.49-1.18.74l-.87.62-.76.53a.4.4,0,0,0,.42.67l0,0,.78-.45.9-.52c.34-.22.76-.38,1.2-.61s.92-.47,1.45-.66,1.06-.44,1.64-.64,1.18-.39,1.8-.56,1.24-.34,1.88-.45,1.27-.25,1.91-.31l.93-.12.92-.06c.6-.06,1.18,0,1.73-.06s.88,0,1.29,0a21,21,0,0,1-.11-2.4c-.41,0-.83,0-1.28.07s-1.22.11-1.86.23l-.38.06c-.36-1.34-.78-2.63-1.25-3.92a42.62,42.62,0,0,0-1.67-4,26.24,26.24,0,0,0-2.21-3.78c-.38-.51-.79-1-1.23-1.51l.34-.28a12.57,12.57,0,0,1,1.49-1.1c.31-.2.65-.42,1-.63a10,10,0,0,1,1.18-.55c.38-.14.91-.31,1.41-.52s1.07-.44,1.66-.73a8.84,8.84,0,0,0,1.57-1c1.08.5,2.16,1,3.21,1.44a8.34,8.34,0,0,1,2.17-3.52c-1-.46-2.11-.93-3.18-1.42l0-.18,0-.14h0l0-.24v-.25c0-.12,0-.23,0-.35v-.17a.81.81,0,0,0,0-.21,9.64,9.64,0,0,0-.2-1.16,5.22,5.22,0,0,0-.75-1.57,5.62,5.62,0,0,0-.84-1,4.55,4.55,0,0,0-.67-.5l-.32-.2a1.75,1.75,0,0,0-2.13,2.74l.14.14,0,0,0,0a.35.35,0,0,1,.13.1l.07.06a.08.08,0,0,1,0,0h0a2.55,2.55,0,0,1,.74,1.14h0c.35,1.16-.35,2.6-2,3.57a8.26,8.26,0,0,1-1.23.56h0c-.42.23-.84.44-1.3.71a12.34,12.34,0,0,0-1.35.93,13.73,13.73,0,0,0-1.1,1,15.85,15.85,0,0,0-1.45,1.61l-.22.29c-.17-.13-.33-.27-.52-.39l-.53-.32-.62-.29-.51-.19-.06,0,0,0-.1,0-.14,0-.3-.07c-.28-.07-.56-.13-.85-.18a8.16,8.16,0,0,0,.23-1.45,8.25,8.25,0,0,0-.11-2.28,7.83,7.83,0,0,0-.34-1.28,5.87,5.87,0,0,0-.27-.67c-.11-.23-.23-.47-.31-.61l-.31-.56-.2-.42c-.06-.13-.13-.27-.2-.4s-.07-.28-.11-.41l-.12-.38c0-.13,0-.25,0-.36s0-.23,0-.34a1.34,1.34,0,0,0,0-.2c2.27,1.12,4.6,2.26,6.95,3.39.31.12,2,.64,3.25-3,0,0,0,0,0,0h0c.13-.33.27-.74.43-1.21.21-.63.44-1.38.64-2.21a14,14,0,0,0,.39-2.75,6.27,6.27,0,0,0-.15-1.62,4,4,0,0,0-.37-1,2.61,2.61,0,0,0-.17-.28l-.1-.15,0-.06,0,0-.11-.12-.14-.16a5.46,5.46,0,0,0-1.27-1,5.87,5.87,0,0,0-1.42-.59,6.19,6.19,0,0,0-2.27-.14,4.82,4.82,0,0,0-.65.12,1.25,1.25,0,0,0-.23.07h0L156,69l-.13.05a3.21,3.21,0,0,0-1-.75,3.17,3.17,0,0,0-1.56-.36L153,68l-.21,0-.17,0-.1,0h0l-.07,0-.07,0-.28.09a5.06,5.06,0,0,0-1.06.49,5.34,5.34,0,0,0-1.69,1.54,6.58,6.58,0,0,0-.89,1.75,8.16,8.16,0,0,0-.35,1.4c-9.34-4.7-16.49-8.51-16.63-8.58a2.05,2.05,0,1,0-1.93,3.62c.15.08,8.13,4.32,18.27,9.4,0,0,0,.06,0,.09a5.48,5.48,0,0,0-.06.87,5.92,5.92,0,0,0,.07,1.08c0,.19.07.39.1.59s.12.4.19.61.13.42.21.62l.3.61c.11.19.21.4.32.6l.41.55.41.55.33.41a3.88,3.88,0,0,1,.29.38,2,2,0,0,1,.23.36,5.18,5.18,0,0,1,.4.82,6.27,6.27,0,0,1,.39,1.64,7.34,7.34,0,0,1,0,1.22v0h-.69c-.39,0-.76.05-1.15.08a10.38,10.38,0,0,0-1.12.14c-.38.05-.74.12-1.11.2a22,22,0,0,0-2.16.55c-.71.21-1.41.45-2.1.71s-1.37.54-2,.84-1.32.61-2,1h0l0,0a1.61,1.61,0,0,0-.76,1.19,42,42,0,0,0-.29,4.69c0,1.55,0,3.09.13,4.63a44.15,44.15,0,0,0,1.59,9.17,32.55,32.55,0,0,0,1.62,4.42,28,28,0,0,0,2.29,4.15,23.86,23.86,0,0,0,1.44,1.91c.26.3.51.61.78.91l.84.85a8.54,8.54,0,0,0,.88.82l.91.78c.66.46,1.28,1,2,1.37a20.23,20.23,0,0,0,2.09,1.16l1.08.51,1.14.44a20.65,20.65,0,0,0,2.2.71l.54.15.19.06.14,0,.28.06,1.12.24c.74.16,1.48.34,2.23.49l2.25.39c.75.15,1.51.23,2.27.33s1.51.21,2.28.25l2.29.17,2.3.07c.76,0,1.53,0,2.3,0s1.54-.1,2.31-.15a36,36,0,0,0,4.59-.77c.38-.08.76-.19,1.13-.3s.76-.22,1.13-.35a14.8,14.8,0,0,0,1.62-.65A24.45,24.45,0,0,0,188,131.2l1.12.53,1.16.45,1.16.44.57.22.11,0-1.26,9.19c-3.71-1.08-19.69-5.11-32.67,1.45-11.32,5.71-9.42,19.53-7.74,26.14-12.78,4.16-21.59,8-24.26,10-8.21,6.37-10.9,22.58-10.9,22.58s-10.31,13.37-9.52,22.38,11.25,27.6,9,33.2-8.76,21.77-9.63,30.27a17.68,17.68,0,0,1-6,11.41c-5.66,4.91-6.57,6.19-9.1,10.74a19.71,19.71,0,0,0-1.9,11.83c.49,2,8,.42,18.74,1.3,2,.16,5,0,5.52-10.66.53-11.85,4.29-16.91,4.29-16.91s11.2-4,15.4-11.47-4.14-17.94-4.14-17.94,8,2.54,9.55,14,0,29.88,21.19,34.46,28-11.56,28-11.56,11.89,1.23,19.94-6.88c0,0-4,7.43-15.45,10.21a47,47,0,0,0,5.62,10c4.43,5.95,9.45,11.68,9.45,11.68s-.61,7.45,2.71,11.91a4.72,4.72,0,0,0,3,1.33c6.9.66,25.38,2.14,24.66-2.05,0,0,.31-9.13-13.37-14.66l-9.33-11.72s15.93-2.84,19.86-17.88a26.12,26.12,0,0,0,9.78-.14s7.22-3.38,8.73-8c9.06-1.3,13.32-1.75,14.86-7.57.84-3.18-1.68-4-2.62-6.28-2.2-5.38-3.93-6.93-13.68-9-10.63-2.22-16.28-12-16.28-12a21.29,21.29,0,0,0,5-6.7c2.17-4.41-4-9.34-4-9.34s9.11-.1,12.89-3.49,6.63-11,2.73-9.85-19.81.54-22.75,7.45l-4.1-5.23c17.3-4.57,12.39-23.63,9.19-17.6s-7.72,8.31-11.58,9.12a12.35,12.35,0,0,1-6.66-.35c-2.4-2.41-6.08-3.88-9.39-2.38a14.7,14.7,0,0,1-1.8.85c-1.9.57-4.38-.06-6.32-.26-3.56-3.8-10.52-4.52-15.87-2.66s-10.59,2.86-17.72-3-8-12.67-7.31-17.41c.47-3.42-1.83-2.24-1.83-2.24-9.89,11-4.36,23.08-.21,27.11,3,2.88,2,3.64,2,3.64-4,2.17-11.57-2.73-21.34-2.88s-11,3.68-11,3.68,3.54,12.38,13.12,16.11,14.58,1.85,16.88,6.2-14.19,48,53.46,40.54c-2.31,1.21-18.52,9-40.89.94-24.19-8.67-16.7-38.12-16.7-38.12s-.36-3.13-8.93-3.32-19.39-8.52-22.41-22.57c0,0,4.11-13.32,30.07-5.15,0,0-11.86-15,6-31,6-5.38,6.28-1,6.28-1-2.79,11.62.55,17,5,20.89,4.95,4.37,10.09,4.24,18.28,2.56S200,210.27,200,210.27l3.4.35a15,15,0,0,1,14.75,1.28c12.8.18,14.68-13.6,17.12-12.89S239,202.6,239,202.6c3.54,7.92-.22,17.84-.22,17.84s7.48-1.52,11.13-1.38a67,67,0,0,0,8.75-.47c-2.35,20.59-16,21.13-16,21.13,4.65,4.95-3.13,13.77-3.13,13.77,6.74,8,16.13,6.8,22.35,9.85s5.49,6.74,5.49,6.74c5.68-1.82,14.94-8.42,14.94-8.42-14.61-14.9-6.78-30.92-1.37-43.42s16.41-36.1,16.41-36.1-3.06,13.08-12.41,37.2-4,32.21,2.21,38.69c24.13,15.87,53.3,2.73,55.1,5.32s-9.53,22.83-9.53,22.83A91.47,91.47,0,0,0,316.3,301c-7.8,9.45-12.16,15.86-5,16.4,8.41.63,22.83.92,27.58-.66,3.78-1.25,1-10.34,1-10.34a12.38,12.38,0,0,0,7.12-5.79c2.22-4.39-1.59-8.75-1.59-8.75a177.89,177.89,0,0,1,23.48-27.13c14.45-13.63,18-21.84,14.65-25.63s-9.72-2.37-17-1.4-12.14,1.15-12.14,1.15c3.12-3.78,7.13-11.44,10.88-20.26,2.31-.3,4.93-.64,7.1-.9,5.1-.62,7.78,7.15,17.87,4.75s11.61-11,11.61-11,4.36,5,9.66-.38,7.32-22.06,10.7-29.58C425.89,173.25,429.75,170.21,429.34,169.82ZM198,97.86l.16.31a7.33,7.33,0,0,0,.51.91,20.63,20.63,0,0,0,5.26,5.83,28.42,28.42,0,0,0,6,3.48,40.86,40.86,0,0,0,4.84,1.76l-.12,0c-1,.31-2,.55-2.89.9-.44.16-.87.31-1.27.47l-1.12.49c-.7.32-1.3.63-1.79.9s-.88.5-1.17.69l-.39.25-.11.1a3.26,3.26,0,0,0-.29-.36,20.59,20.59,0,0,0-3.77-3.38A27.42,27.42,0,0,0,198,108a28.7,28.7,0,0,0-2.9-1.2l-.86-.28-.34-.09-.27-.06h0a18.6,18.6,0,0,0-1.27-3.77,10.4,10.4,0,0,0-1.5-2.32,5.47,5.47,0,0,0-2.88-1.8l-.24,0h-.27l-.21,0c0-.11.05-.22.08-.34s.07-.5.1-.76a11,11,0,0,0,0-1.63c0-.22,0-.43-.05-.64C190.94,96.11,194.53,97.05,198,97.86Zm-40.33-25.1h0s0,0,0,0a1.16,1.16,0,0,1,.19-.09,2.4,2.4,0,0,1,.84-.18,2.2,2.2,0,0,1,.55.06,2.38,2.38,0,0,1,.63.3l.08,0h0s.07.09-.08-.08l.09.08.1.1a0,0,0,0,1,0,0s.1.11.15.2a3.36,3.36,0,0,1,.29.91,11.5,11.5,0,0,1,.15,2.29c0,.78-.08,1.51-.15,2.14,0,.35-.08.67-.12,1l0,0c-.33,1.76-1.56,1.73-2.14,1.1a4,4,0,0,1-.51-2.38h0c0-.5,0-1.15,0-1.92a22.82,22.82,0,0,0-.26-3.18l0-.19A1,1,0,0,0,157.62,72.76Zm-5.77.6c0-.13,0-.26.05-.4a2.6,2.6,0,0,1,.83-1.6,2.12,2.12,0,0,1,.44-.3l.13-.06,0,0h0l.1,0,0,0h.06c.07,0,.1-.05.16,0a.54.54,0,0,1,.3.16,3.44,3.44,0,0,1,.73,1.07,6.86,6.86,0,0,1,.34.83,14,14,0,0,1,1.07,4.47,5,5,0,0,1,0,.55c0,1.06-.36,1.79-1.19,1.65-2.07-.34-2.91-4.21-2.91-4.21h0s0,0,0,0A4.51,4.51,0,0,1,151.85,73.36Zm76.91,166.48c2.44-1.86,5.33-.32,6.51,1.51-1.17-.26-2.51.17-3.6,1.83-1.5,2.29-.06,4.51.61,5.35a10.46,10.46,0,0,1-1.53,1.13c-3.57,2.13-4.35-1.13-4.35-1.13S225.59,242.26,228.76,239.84Zm-80-11.82c-6.43.71-8.89-.4-13.83-3.83a16,16,0,0,0,9.4,1.83c5.56-.58,12,.2,12.22,6.12C156.53,232.14,154.07,227.43,148.74,228Zm58.77,24.2c-.42.3-5.06,1.1-7.08,1.54-2.35.52-5,1.74-7.37,1.43a9.29,9.29,0,0,1-6.05-3c-5.08-5.88-4.88-13.33-3.25-14.56,3-2.24,10.68.5,14.32,4.22-4,1.15-9.14,3.45-8.24,7.37,0,0,.24,1.06,2.21.8s8-2.93,15.54-.44C208.52,250.41,208.78,251.33,207.51,252.22Zm9.76-103.3c2.13-.08,4.25-.23,6.37-.47.74-.08,1.5-.18,2.25-.28l0,.11c0,.29.08.67.16,1.12a1.21,1.21,0,0,1-.07.58c-.78.94-6.6,3.64-13.83,4.4a3.58,3.58,0,0,1-2.92-.82c-1.3-1.15-1.93-3.3-2.21-5A69.89,69.89,0,0,0,217.27,148.92Zm-24.34-4c.15.07.29.15.44.21.52.25,1,.46,1.55.67,1,.4,2.09.75,3.14,1.06,1.58.45,3.17.81,4.77,1.11a17.31,17.31,0,0,0,1.33,5.26c-4.15,1-10.65-.27-12.39-3.22C190.65,148.13,191.91,146.11,192.93,144.92Zm-19.1,11.68-.63-.23-.71-.31c-.49-.24-1-.52-1.52-.82a28.92,28.92,0,0,1-2.75-1.86c-.72-.56-1.18-.95-1.18-.95a.39.39,0,0,0-.5,0,.4.4,0,0,0-.07.57s.38.5,1,1.2a29.58,29.58,0,0,0,2.45,2.48c.47.43,1,.84,1.47,1.21l.73.51.41.25a20.22,20.22,0,0,0-1.27,2h-.12l-1,0L169,160.6l-1.32-.17c-.46-.1-.94-.18-1.42-.29s-1-.24-1.46-.4c-1-.3-2-.63-2.84-1s-1.72-.73-2.43-1.05c-1.4-.68-2.3-1.2-2.3-1.2a.31.31,0,0,0-.39.08.3.3,0,0,0,.06.43s.84.64,2.17,1.5c.68.43,1.46.92,2.34,1.4s1.83,1,2.81,1.4c.49.23,1,.41,1.49.62s1,.34,1.49.51l1.45.38,1.34.25h.16c-.11.29-.21.59-.3.89-6.08,1.6-11.72,3.25-16.8,4.86-1.52-6-3.17-18,6.38-22.87,11-5.57,24.92-2.76,29.68-1.53a8,8,0,0,0-1.19,4.22c-2.22.67-9,3-13.76,8.05Zm6.77,20.92c-4.9-2.58-7.63-6.26-7.31-9.86.92-10.28,13.9-14.53,16.05-15.16,2,2.49,5.78,4,9.64,4.37a17.19,17.19,0,0,0,7.15-.66,5,5,0,0,0,.4.4,7.37,7.37,0,0,0,4.24,1.85,8.72,8.72,0,0,0,1.84,0A44.29,44.29,0,0,0,224,155.7a6.09,6.09,0,0,1-.14.63c-.11.28-.22.58-.34.91l-.54,1-.74,1.05c-.33.33-.62.71-1,1.06l-.59.53a5.53,5.53,0,0,1-.62.53,14.24,14.24,0,0,1-1.41,1c-.25.16-.5.34-.76.5l-.82.48a38.15,38.15,0,0,1-3.56,1.8c-1.26.55-2.57,1.08-3.9,1.55-1,.35-2,.69-3,1-.46,0-1,.05-1.75.06-.42,0-.88,0-1.36,0s-1-.06-1.52-.12-1.06-.14-1.61-.23-1.09-.24-1.64-.35-1.08-.32-1.6-.5a15.72,15.72,0,0,1-1.5-.64,12,12,0,0,1-1.33-.73c-.38-.28-.8-.5-1.11-.78l-.88-.76c-.25-.24-.43-.48-.6-.67l-.52-.59,0,0a.38.38,0,0,0-.6.45l.46.7c.16.22.32.51.55.81l.83.95a12.13,12.13,0,0,0,1.09,1,13,13,0,0,0,1.34,1c.48.36,1,.61,1.55.93s1.11.54,1.67.8,1.13.45,1.7.62c-1.93.48-3.75.88-5.37,1.23-2.13.44-3.92.82-5.17,1l-2,.36a.42.42,0,0,0-.35.39.43.43,0,0,0,.4.45s.75,0,2,0,3.14,0,5.35-.18c1.1-.07,2.3-.18,3.56-.31s2.6-.31,4-.53,2.79-.46,4.23-.78c.42-.08.85-.19,1.27-.28H208l.16,0,.21,0,.29-.13.26-.07.14,0c1.49-.39,3.24-.93,5.12-1.63,1.2-.45,2.44-1,3.71-1.56l1.25-.61a9.73,9.73,0,0,1-2.58,5.67l-.11.12a10.8,10.8,0,0,1-3.1,2.2C201.74,182.42,188.6,181.72,180.6,177.52Zm43.87,10.76c-1.42,2.61-2.48,1.81-6.93,5s-7.92,3.53-6.51.93,4.44-7.56,4.47-10.07c0-1.85-2-3.28-3-3.91A42.26,42.26,0,0,0,218.9,176c2.16,1.5,3.59,7,3.59,7S225.88,185.68,224.47,188.28Zm11-29.84c-3.66-2.3-4.93-7.18-5.35-9.61a8.67,8.67,0,0,0-.17-1.2v-.08h0a44.69,44.69,0,0,0,7.26-1.94c1.83,3.58,6.06,7.62,8.84,10C242.86,157,238.32,158.63,235.49,158.44Zm22.45-7.08q-5.12,0-10.23.25c-1.05-1-2.16-2-3.2-3.12a99.38,99.38,0,0,0,15-7.05A37,37,0,0,0,257.94,151.36Zm102.9,4.11a36,36,0,0,1,8.69-7.47c11.66-6.53,13-2.45,7.1,9.48a54.88,54.88,0,0,1-4.78,8.05A41.69,41.69,0,0,0,360.84,155.47ZM199.09,91.26c0-.13,0-.26,0-.39a12.39,12.39,0,0,1,.15-1.81,13.82,13.82,0,0,1,.43-1.77,14.78,14.78,0,0,1,.67-1.71,15.87,15.87,0,0,1,.91-1.61,18.09,18.09,0,0,1,1.09-1.51c.42-.47.82-.94,1.28-1.37A15.79,15.79,0,0,1,205,79.86c.25-.19.45-.38.72-.57l.83-.57.4-.28.37-.22.83-.47,1.63-1,.9-.42c0,.11,0,.22,0,.34a4.37,4.37,0,0,0,.54,1.38,4.64,4.64,0,0,0,.52.67,3.71,3.71,0,0,0,.66.59,4,4,0,0,0,.76.47l.15.06-.9.33-1.14.37A4.1,4.1,0,0,0,209,82.71a4,4,0,0,0-.21,2.76,4.47,4.47,0,0,0,1.22,2,6.78,6.78,0,0,0,1.47,1.07,8.71,8.71,0,0,0,1.21.56c.35.14.62.22.8.28l.29.09a.58.58,0,0,0,.69-.31.58.58,0,0,0-.29-.76h0l-.25-.11-.68-.33a6.4,6.4,0,0,1-2-1.57,2.79,2.79,0,0,1-.63-1.32,2,2,0,0,1,.29-1.39,1.88,1.88,0,0,1,1.08-.83l1.14-.23c.4-.08.8-.18,1.2-.28a23.73,23.73,0,0,0,2.4-.75,12.25,12.25,0,0,0,2.35-1.17,5.39,5.39,0,0,0,1.13-1,3.1,3.1,0,0,0,.27-.34l.15-.24.11-.19.06-.11v0l.06-.13,0-.09c0-.12.09-.24.13-.37a4.35,4.35,0,0,0-.19-3.11,5.9,5.9,0,0,0-1-1.5h0a44.32,44.32,0,0,1,6.23-.8c1,0,1.91-.06,2.8-.06l.69,0a26.8,26.8,0,0,1-5.42-3.36,42.53,42.53,0,0,0-5,.89l-1.79.42-1.8.55c-1.22.33-2.41.87-3.64,1.34a19.73,19.73,0,0,0-1.81.85c-.6.29-1.21.59-1.81.9l-1.75,1.07-.88.54-.39.24-.09.06-.41.29-.81.58c-.28.2-.57.46-.85.69A19,19,0,0,0,201.5,79c-.51.5-1,1.07-1.46,1.63a20.69,20.69,0,0,0-1.26,1.8,17.6,17.6,0,0,0-1.06,2,15.94,15.94,0,0,0-.78,2.09,16.38,16.38,0,0,0-.5,2.18c-.05.54-.12,1.08-.15,1.62C197.2,90.61,198.14,91,199.09,91.26Zm14.07-16c.58-.2,1.14-.42,1.7-.63a1.9,1.9,0,0,0,.49.3l.1,0h0l.13.05a4.33,4.33,0,0,1,.56.25,6.14,6.14,0,0,1,.77.47,3,3,0,0,1,.64.63.81.81,0,0,1,.16.62.5.5,0,0,1,0,.12v0h0c.08-.17,0,0,0-.08h0l0,0,0,.13,0,0h0s0,0,0,.08a2.5,2.5,0,0,1-.46.51,6.79,6.79,0,0,1-1.08.75l-.24-.16c-.13-.09-.29-.17-.43-.28s-.3-.19-.45-.3-.3-.21-.44-.33l-.43-.34-1.65-1.4-.2-.16A8,8,0,0,1,213.16,75.27ZM257,123.39a37.12,37.12,0,0,1-5.92,8.64c1.5-.09,3.26-.16,5.09-.18a39.3,39.3,0,0,0,4.27-6.78,26.44,26.44,0,0,0,2.28-6.35,10.81,10.81,0,0,0,.21-1.89c0-.16,0-.35,0-.54a5.59,5.59,0,0,0-.09-.66l0-.21,0-.11,0-.09,0-.12,0-.1a3.52,3.52,0,0,0-.21-.52,14,14,0,0,0-2-3,48,48,0,0,0-4.59-4.64c-1.29-1.15-2.6-2.24-3.94-3.32a10.75,10.75,0,0,0,.63-1,7.52,7.52,0,0,0,1.05-4.26,5.49,5.49,0,0,0-.78-2.4A5.35,5.35,0,0,0,251,94a5.12,5.12,0,0,0-2.42-.78,6.78,6.78,0,0,0-2.28.25,9.69,9.69,0,0,0-3.5,1.91,13.93,13.93,0,0,0-1.28,1.25,10.28,10.28,0,0,1-.92,1,19.37,19.37,0,0,1-2.06,1.57c-.67.48-1.34.86-1.92,1.22l-1.56.9-1.38.73a.49.49,0,0,0-.26.48.48.48,0,0,0,.53.42,14.63,14.63,0,0,0,1.61-.29,22,22,0,0,0,4.14-1.34,16.21,16.21,0,0,0,2.64-1.44,14.21,14.21,0,0,0,1.37-1.07,11.91,11.91,0,0,1,1.05-.92,6.53,6.53,0,0,1,2.38-1.14,2.43,2.43,0,0,1,1.94.25,2,2,0,0,1,.56.67,1.65,1.65,0,0,1,.22.85,4.18,4.18,0,0,1-.7,2.08,6.5,6.5,0,0,1-1.6,1.77,6,6,0,0,1-1.83,1,4.45,4.45,0,0,1-2.83,0,3.28,3.28,0,0,1-.45-.17l-.33-.15-.27-.14-.16-.08a2,2,0,0,0-2.5.5l-.06,0a14.12,14.12,0,0,1-6,5.65,12.47,12.47,0,0,1,3.37,2,17.85,17.85,0,0,0,4.28-4h0a7.61,7.61,0,0,0,.81.32,8.39,8.39,0,0,0,2.34.42,8.65,8.65,0,0,0,3-.43,9.6,9.6,0,0,0,1.84-.87c1.46,1.12,2.92,2.3,4.31,3.51a47,47,0,0,1,4.27,4.18,10.73,10.73,0,0,1,1.49,2.11c0,.08.05.14.08.21v0s0,.08,0,.08h0c0-.06,0,.06,0,.11a1.7,1.7,0,0,1,0,.24,8.46,8.46,0,0,1-.14,1.22A23.2,23.2,0,0,1,257,123.39Zm-91.71-8c-.39.34-.81.64-1.16,1a13,13,0,0,0-1,1.07,10.29,10.29,0,0,0-.87,1.08,9.49,9.49,0,0,0-.7,1l-.51.91-.32.75-.27.64a.4.4,0,0,0,.17.49.39.39,0,0,0,.53-.14l0,0,.32-.57.38-.65.57-.78a9.4,9.4,0,0,1,.75-.86,8.48,8.48,0,0,1,.91-.88,11.26,11.26,0,0,1,1.06-.85c.35-.29.78-.52,1.16-.78s.82-.47,1.22-.69.82-.42,1.23-.59c.62-.27,1.23-.49,1.77-.68-.31-.69-.61-1.42-.88-2.19-.58.28-1.21.6-1.86,1-.42.24-.83.53-1.26.8S165.7,115.12,165.3,115.44Zm68.47-31a4.35,4.35,0,0,1,.61.6,3.23,3.23,0,0,1,.46.58l.33.52.18.42.17.36,0,.1a2.67,2.67,0,0,0,.5.72,2.57,2.57,0,0,0,3.68-3.59l-.51-.52-.59-.58-.85-.64a7,7,0,0,0-1-.64,6.76,6.76,0,0,0-1.22-.55,11.25,11.25,0,0,0-1.32-.41c-.45-.12-.91-.16-1.36-.24a14.37,14.37,0,0,0-2.61-.05c-.4,0-.79.06-1.16.11s-.7.12-1,.17a16.58,16.58,0,0,0-2,.55.34.34,0,0,0-.22.33.33.33,0,0,0,.35.34,14.65,14.65,0,0,1,2,.15c.29,0,.6.08.93.16s.66.14,1,.24a12.41,12.41,0,0,1,2,.76,9.84,9.84,0,0,1,.91.52A5.31,5.31,0,0,1,233.77,84.41Zm-2.52,5.21a4,4,0,0,0-.4-.27c-.12-.07-.27-.18-.44-.26s-.33-.22-.52-.33a6.1,6.1,0,0,1-.58-.36c-.19-.14-.41-.25-.6-.4s-.41-.26-.6-.43-.39-.29-.58-.45a3.11,3.11,0,0,0-.28-.23l-.28-.25c-.2-.15-.36-.33-.56-.48l-1.06-.93c-.17-.15-.32-.29-.48-.41s-.27-.23-.38-.32-.37-.28-.37-.29a.39.39,0,0,0-.22-.36.38.38,0,0,0-.5.19l-.19.41s0,0,0,.14-.05.24-.07.4a5,5,0,0,0,.08,1.38,5.31,5.31,0,0,0,.26.87,6.58,6.58,0,0,0,.46.92,6.91,6.91,0,0,0,.68.88c.13.14.27.28.41.41a5.63,5.63,0,0,0,.46.36,5.27,5.27,0,0,0,1,.61,7,7,0,0,0,1,.4,6.71,6.71,0,0,0,1,.19,4.64,4.64,0,0,0,.91,0,4.08,4.08,0,0,0,.76-.11c.22,0,.41-.12.56-.16a4.61,4.61,0,0,0,.47-.19.58.58,0,0,0,.19-.16.54.54,0,0,0-.1-.74Zm-4.37-21,.42.25a29.09,29.09,0,0,0,9,3.32s0,.37,0,.94a8.73,8.73,0,0,0,1.46,5.22c.23.28,1.64-.87,4.12-1.64a14.63,14.63,0,0,0-.95,7.06c.32,1.29,2.48-1.84,7.95-3.88a30.11,30.11,0,0,1-1.26,10.63.48.48,0,0,0,0,.45c1.05.08,5.66.59,7.9,3.34,1.38,1.7,1,4.25.27,6.23a6,6,0,0,0,3.62-4,62.25,62.25,0,0,0,1.37-10.93,16.54,16.54,0,0,0-.67-5.4l.05,0-.23-.39-.55-.92-.77-1.3a15.71,15.71,0,0,1,2.81,1.93,21.14,21.14,0,0,1,6.43-1.56c1,1.65,2.79,1.78,4.72,1.46a.84.84,0,0,0,.55-.91,18.79,18.79,0,0,1,.33-6c.57-1.79-7.42-2.48-15.87,4-2.43-3.1-5.68-6.75-7.83-7.87-3.92-2-10.49-.73-18.8-3.39-6.32-2-7.75-2.86-7.19-.48C223.77,64.68,224.23,66.52,226.88,68.58Zm35.39-9.22a8.82,8.82,0,0,0-.81,3.41,3.11,3.11,0,0,0-.28.23,3.56,3.56,0,0,0-3.93-.55c-2.27,1.22-1.2,4.17-1.2,4.17s-2.05,2.45-1.88,3.24c0,0,.4.42.92,1s1.14,1.33,1.65,2c.13.18.26.36.37.54a.86.86,0,0,0,.27-.05,3.26,3.26,0,0,0,.9-.72c.54-.55,1.16-1.06,1.75-1.56a40.2,40.2,0,0,1,6.17-4.36c4.08-2.32,5.82-3.12,5.82-3.12"/><path d="M179.35,364.69a7.76,7.76,0,0,1-1.68.84,8.41,8.41,0,0,1-1.67.4,12.24,12.24,0,0,1-1.56.12c-.5,0-1,0-1.42,0a5.81,5.81,0,0,1-1.69-.2,4.92,4.92,0,0,1-1.29-.55,3.65,3.65,0,0,1-.9-.79,4.55,4.55,0,0,1-.59-.91,6.22,6.22,0,0,1-.64-2.39q5.35-2.69,11.08-4.94a64.64,64.64,0,0,1,11.81-3.39l2.52-.46a9.12,9.12,0,0,1,2.12-.15,2.53,2.53,0,0,1,1.45.53,2,2,0,0,1,.54,1.52,9.69,9.69,0,0,1-.39,3.35,3.54,3.54,0,0,1-1.2,1.71,6,6,0,0,1-1.93.9,19.55,19.55,0,0,0-2.57,1c-.28,1.14-.62,2.65-1,4.54s-.89,4-1.46,6.45-1.22,5-1.95,7.84-1.57,5.74-2.53,8.75-2,6.07-3.22,9.17-2.52,6.12-4,9.09a85.78,85.78,0,0,1-4.83,8.54,55.92,55.92,0,0,1-5.78,7.49,41.64,41.64,0,0,1-6.81,6,30.41,30.41,0,0,1-7.94,4,9.39,9.39,0,0,1-2.59.44,9.52,9.52,0,0,1-2.76-.27,5,5,0,0,1-2.14-1.08,2.42,2.42,0,0,1-.77-2.08c0-.24.26-.53.75-.85a16.4,16.4,0,0,1,1.67-1c.64-.34,1.28-.65,1.92-.95s1.13-.54,1.47-.72a28,28,0,0,0,4-2.69,27.29,27.29,0,0,0,3.05-2.91,37.25,37.25,0,0,0,2.61-3.21l2.72-3.66a40.11,40.11,0,0,0,3.37-5.41c1.06-2,2.05-4.16,3-6.44s1.8-4.63,2.62-7.07,1.58-4.85,2.29-7.27,1.37-4.77,2-7.08,1.18-4.46,1.69-6.49,1-3.87,1.43-5.53S179,365.78,179.35,364.69Z"/><path d="M225.52,414.91a13,13,0,0,1-3.86-.44,7.64,7.64,0,0,1-2.69-1.35,7.17,7.17,0,0,1-1.75-2.1,13.14,13.14,0,0,1-1.08-2.61,22,22,0,0,1-.66-2.93c-.16-1-.32-2-.47-3.05-1.17-.16-2.4-.28-3.7-.35s-2.6-.12-3.92-.14-2.63,0-3.91,0-2.5.07-3.64.14c-.5,1-1.12,2.15-1.84,3.49s-1.46,2.75-2.22,4.2-1.5,2.91-2.21,4.37-.91,2-1.42,3.21a1.25,1.25,0,0,1-1.66.48,10.84,10.84,0,0,0-2.69-.7c-1.39-.12-5.39-.7-4.12-3q.9-2,2.35-4.69c1-1.83,2.09-3.84,3.38-6.05s2.7-4.55,4.24-7.05,3.19-5.08,4.94-7.73,3.58-5.35,5.47-8.08,3.84-5.43,5.83-8.09,4-5.25,6-7.77,4-4.9,6-7.11a11.39,11.39,0,0,1,2.06,0,17.27,17.27,0,0,1,2.16.26,9.1,9.1,0,0,1,1.67.46c.44.18.65.36.62.52q-.73,4.85-1.39,10.2t-1,10.79q-.36,5.43-.34,10.76a83,83,0,0,0,.62,10.11q.21,1.64.54,3.33c.22,1.13.43,2.22.62,3.27s.34,2,.44,2.95a9,9,0,0,1,0,2.43,3,3,0,0,1-.72,1.65A2.31,2.31,0,0,1,225.52,414.91Zm-11.05-18.37c.05-.5.12-1.29.22-2.38s.21-2.31.34-3.67.28-2.8.44-4.31.32-2.92.48-4.24.31-2.48.47-3.48a8.69,8.69,0,0,1,.47-2,19.48,19.48,0,0,0-1.65,2.05c-.65.88-1.35,1.89-2.11,3s-1.57,2.33-2.43,3.62-1.73,2.59-2.6,3.91-1.75,2.6-2.62,3.87-1.72,2.44-2.53,3.51Z"/><path d="M264.9,384.7a54.83,54.83,0,0,0,2.94,5.09q1.67,2.58,3.62,5.08t4.16,4.8a44.78,44.78,0,0,0,4.63,4.23,40.62,40.62,0,0,0,5,3.43,26.26,26.26,0,0,0,5.23,2.33,6.71,6.71,0,0,1,1.34.57,4.36,4.36,0,0,1,.89.68,4.59,4.59,0,0,1,.69.93c.2.37.44.81.69,1.32-.37.09-.75.17-1.14.23s-.76.12-1.14.16a18.76,18.76,0,0,1-8.61-1.13,33.32,33.32,0,0,1-8.48-4.7,59.79,59.79,0,0,1-8.16-7.5,104.28,104.28,0,0,1-7.69-9.5l-8.74,8.51q-.54,2.46-1,5.19t-.85,5.39q-.42,2.67-1,5.11a30,30,0,0,1-1.24,4.32,10.3,10.3,0,0,1-1.71,3.06,3.59,3.59,0,0,1-2.41,1.34,8.74,8.74,0,0,1-2.18-.09,12,12,0,0,1-2.41-.6,7.27,7.27,0,0,1-2-1.09,2.24,2.24,0,0,1-.94-1.55,21.06,21.06,0,0,1,.06-4c.14-1.68.38-3.62.72-5.8s.76-4.56,1.24-7.15,1-5.26,1.62-8,1.21-5.59,1.85-8.45,1.27-5.66,1.91-8.39,1.26-5.36,1.84-7.89,1.12-4.82,1.62-6.9a8.44,8.44,0,0,1,1.79-3.91,4.21,4.21,0,0,1,2.64-1.37,3.92,3.92,0,0,1,2.42.51,9.55,9.55,0,0,1,2,1.57,9.66,9.66,0,0,1,1.43,1.84,4.08,4.08,0,0,1,.58,1.35,10,10,0,0,1-.1,2.36c-.13,1-.32,2.11-.57,3.35s-.53,2.55-.86,3.93-.65,2.73-1,4.06-.64,2.6-.92,3.81-.52,2.27-.69,3.18c.74-.64,1.62-1.48,2.65-2.52s2.14-2.2,3.34-3.47l3.79-4q2-2.13,4-4.21t4-4c1.32-1.27,2.57-2.4,3.77-3.39a28.11,28.11,0,0,1,3.34-2.41,6.78,6.78,0,0,1,2.67-1.05,5.15,5.15,0,0,1,1.58.1,5.87,5.87,0,0,1,1.68.58,5,5,0,0,1,1.4,1,2.46,2.46,0,0,1,.68,1.43,1.49,1.49,0,0,1-.2.83,5.41,5.41,0,0,1-.64.94c-.27.32-.56.65-.88,1l-.92,1q-4.44,4.62-8.83,9.11T264.9,384.7Z"/><path d="M321,409.61a13.16,13.16,0,0,1-3.85-.47,7.64,7.64,0,0,1-2.68-1.39,7,7,0,0,1-1.74-2.11,13.52,13.52,0,0,1-1.05-2.62,26.15,26.15,0,0,1-.63-2.93c-.15-1-.3-2-.44-3.07-1.17-.16-2.4-.29-3.69-.38s-2.61-.14-3.93-.17-2.62-.05-3.91,0-2.49,0-3.63.11c-.52,1-1.14,2.13-1.88,3.47s-1.49,2.73-2.26,4.17-1.53,2.9-2.25,4.35-.82,1.59-1.33,2.78a6.51,6.51,0,0,1-1.73-.49c-.65-.26-1.44.77-2.26.35s-1.64-.88-2.47-1.37a24.54,24.54,0,0,1-2.1-1.35q.92-1.95,2.39-4.66t3.44-6q2-3.3,4.31-7t5-7.68q2.65-4,5.55-8t5.9-8q3-4,6.09-7.71t6.11-7.05a11.51,11.51,0,0,1,2.06,0,15.49,15.49,0,0,1,2.16.28,8.15,8.15,0,0,1,1.66.48c.44.18.64.36.62.52-.53,3.23-1,6.62-1.5,10.19s-.84,7.16-1.12,10.78-.42,7.2-.45,10.76a81.7,81.7,0,0,0,.53,10.11q.19,1.63.51,3.33c.21,1.13.4,2.22.58,3.28s.32,2,.42,3a9.66,9.66,0,0,1,0,2.42,2.94,2.94,0,0,1-.74,1.64A2.31,2.31,0,0,1,321,409.61Zm-10.88-18.47c.06-.5.14-1.3.25-2.38s.24-2.31.38-3.67.3-2.8.48-4.3.34-2.92.52-4.24.34-2.48.5-3.47a9.37,9.37,0,0,1,.49-2,20,20,0,0,0-1.67,2c-.65.88-1.36,1.88-2.13,3s-1.6,2.32-2.47,3.6-1.76,2.57-2.64,3.88-1.77,2.59-2.66,3.85-1.74,2.42-2.56,3.48Z"/></g></g></svg>