<svg xmlns="http://www.w3.org/2000/svg" viewBox="0 0 1542.43 202.29"><g id="Capa_2" data-name="Capa 2"><g id="Capa_1-2" data-name="Capa 1"><path d="M292.69,90.22q10.43-13,10.42-32.14V53.37q0-22.84-14.89-36.86t-39-14H170.32q-10.19,0-10.18,10.18V102H278.61A45.79,45.79,0,0,0,292.69,90.22ZM280.77,56.84q0,14.66-9.18,23.58t-23.83,8.94H182.48V22.09h65.28q14.64,0,23.83,9.06t9.18,23.46Z"/><path d="M457.3.74q-11.16,0-11.17,11.17V102h22.34V11.91Q468.47.75,457.3.74Z"/><path d="M337.66.74q-11.16,0-11.17,11.17V102h22.34V11.91Q348.83.75,337.66.74Z"/><path d="M80.67,102V22.09h48.15q10.19,0,10.18-9.68,0-9.93-10.18-9.93H10.18Q0,2.48,0,12.41q0,9.68,10.18,9.68H58.33V102Z"/><path d="M85.34,102v88.37q0,11.18,11.17,11.17t11.17-11.17V102Z"/><path d="M639.79,100.65A116.12,116.12,0,0,0,616,93.58q-13-2.49-25.94-4.22a193.41,193.41,0,0,1-23.71-4.6,35.73,35.73,0,0,1-17.5-10.05q-6.69-7.2-6.7-18.86V54.11q0-15.39,13.28-24.7t35.12-9.31q32.26,0,47.41,26.32,4.71,7.2,13.9,4a10.6,10.6,0,0,0,6.46-5.84,8.73,8.73,0,0,0-.5-8.06A59.54,59.54,0,0,0,632.1,9.68Q614.59,0,591,0q-32,0-51.63,15.14T519.78,54.85v3.23q0,15.65,6.7,25.94A38.6,38.6,0,0,0,544,98.91,116.22,116.22,0,0,0,567.81,106q13,2.48,25.94,4.22a195.2,195.2,0,0,1,23.7,4.59,35.68,35.68,0,0,1,17.5,10q6.7,7.2,6.7,18.86V146q0,16.14-14.14,26.18t-37.23,10.06q-33.27,0-51.38-28.8a8.24,8.24,0,0,0-5-3.59q-3.23-.87-7.94.86-9.93,5-6,13.16a61.8,61.8,0,0,0,27.18,28.42q18.49,10,42.82,10,33.26,0,53.61-15.88T664,145v-3.23q0-15.89-6.7-26.19A38.61,38.61,0,0,0,639.79,100.65Z"/><path d="M473.14,102v30.78q0,22.35-13.27,35.87t-35.13,13.53q-22.1,0-35.49-13.53t-13.4-35.87V102H353.51v32.27q0,30.54,19.48,49.27t51.75,18.74q31.77,0,51.26-18.74t19.48-49.27V102Z"/><path d="M291.4,107.23A54.31,54.31,0,0,0,305.63,102H187.16v88.37q0,11.18,11.17,11.17t11.16-11.17V109h59.33l36.73,85.39q4.71,10.17,14.65,6,10.17-4,5.71-14.65Z"/><path d="M1532.25,180.2h-97.79V109h90.35q10.17,0,10.17-9.68,0-9.91-10.17-9.92h-90.35V22.09h95.31q10.17,0,10.18-9.68,0-9.93-10.18-9.93H1422.29q-10.17,0-10.17,10.18v177q0,10.19,10.17,10.18h110q10.18,0,10.18-9.93Q1542.43,180.21,1532.25,180.2Z"/><path d="M1133.65,0q-35.49,0-57.21,20.85T1054.72,75.7v50.89q0,34,21.72,54.85t57.21,20.85q35.49,0,57.34-20.85t21.84-54.85V75.7q0-34-21.84-54.85T1133.65,0Zm56.84,125.1q0,25.82-15.63,41.45t-41.21,15.64q-25.56,0-41.08-15.64t-15.51-41.45V77.19q0-25.8,15.51-41.45t41.08-15.64q25.56,0,41.21,15.64t15.63,41.45Z"/><path d="M1308.22,2.48h-58.08Q1240,2.48,1240,12.66v177q0,10.19,10.18,10.18h58.08q34.74,0,56-20.85t21.22-54.61V77.94q0-33.75-21.22-54.61T1308.22,2.48Zm54.85,120.63q0,25.83-15.39,41.45T1307,180.2H1262.3V22.09H1307q25.32,0,40.7,15.64t15.39,41.45Z"/><path d="M800.53,2.48H681.89q-10.18,0-10.18,9.93,0,9.68,10.18,9.68H730V190.38q0,11.18,11.17,11.17t11.17-11.17V22.09h48.15q10.19,0,10.18-9.68Q810.71,2.48,800.53,2.48Z"/><path d="M1029.13,147.93q-8.45-3.21-13.65,4.47a53.08,53.08,0,0,1-19.36,21.47,52.44,52.44,0,0,1-29,8.32q-24.83,0-40-15.39T912,126.34V77.69q0-25.81,15-41.7T966.83,20.1A51.71,51.71,0,0,1,994,27.67a57.8,57.8,0,0,1,20.48,21.72q4.71,7.22,13.65,4.22a9.29,9.29,0,0,0,6.08-6.33,10,10,0,0,0-.62-8.06q-8.19-17.62-26.31-28.42A77.53,77.53,0,0,0,966.83,0q-34.76,0-56,21T889.64,76.45v51.13q0,33.77,21.22,54.24t56.22,20.47q23.58,0,41.82-10.92a64.33,64.33,0,0,0,26.68-30.53q1.74-2.73.13-6.82T1029.13,147.93Z"/><rect x="430.8" y="95.25" width="246.95" height="11.79"/></g></g></svg>