<?xml version="1.0" encoding="utf-8"?>
<!-- Generator: Adobe Illustrator 26.0.1, SVG Export Plug-In . SVG Version: 6.00 Build 0)  -->
<svg version="1.1" id="Capa_1" xmlns="http://www.w3.org/2000/svg" xmlns:xlink="http://www.w3.org/1999/xlink" x="0px" y="0px"
	 viewBox="0 0 260.4 112.5" style="enable-background:new 0 0 260.4 112.5;" xml:space="preserve">
<style type="text/css">
	.st0{fill:#1D1D1B;}
	.st1{fill:#FFFFFF;}
	.st2{fill-rule:evenodd;clip-rule:evenodd;}
	.st3{stroke:#1D1D1B;stroke-width:2;stroke-linecap:round;stroke-miterlimit:10;}
	.st4{clip-path:url(#SVGID_00000180327208021646958200000004950762150689892287_);fill:#FFFFFF;}
	.st5{fill:none;}
	.st6{clip-path:url(#SVGID_00000030458236244262876450000012948099143755789446_);fill:#FFFFFF;}
	.st7{clip-path:url(#SVGID_00000093868048203434171580000014305407851765857670_);fill:#FFFFFF;}
	.st8{clip-path:url(#SVGID_00000034080714616525759630000013977039384458003641_);fill:#FFFFFF;}
	.st9{fill:#B2B2B2;}
	.st10{fill:#EDEDED;}
	.st11{fill:#EDEDED;stroke:#DADADA;stroke-width:2.7416;stroke-linecap:round;stroke-linejoin:round;stroke-miterlimit:10;}
	.st12{fill:none;stroke:#DADADA;stroke-width:2.7416;stroke-linecap:round;stroke-linejoin:round;stroke-miterlimit:10;}
	.st13{fill:none;stroke:#DADADA;stroke-width:5.6327;stroke-linecap:round;stroke-linejoin:round;stroke-miterlimit:10;}
	.st14{clip-path:url(#SVGID_00000114755365998095957840000002369633785683251853_);fill:#FFFFFF;}
	.st15{fill:none;stroke:#FFFFFF;stroke-width:3;stroke-linecap:round;stroke-miterlimit:10;}
	.st16{clip-path:url(#SVGID_00000075878217864165892710000015283401986100133291_);fill:#FFFFFF;}
	.st17{fill:none;stroke:#B2B2B2;stroke-width:2;stroke-linecap:round;stroke-miterlimit:10;}
	.st18{fill:#00AEEF;}
	.st19{fill:#231F20;}
	.st20{clip-path:url(#SVGID_00000176743674573336219930000014267665937843778708_);fill:#FFFFFF;}
	.st21{fill:#DADADA;}
	.st22{fill:#44C791;}
	.st23{fill-rule:evenodd;clip-rule:evenodd;fill:#44C791;}
	.st24{fill:#1C284C;}
	.st25{fill:#3C0066;}
	.st26{fill:url(#SVGID_00000160903635739855523830000017105624673142933434_);}
	.st27{fill:url(#SVGID_00000137830801655726924170000003668481632936282012_);}
	.st28{fill:url(#SVGID_00000163767472368733637290000009628888447963629225_);}
	.st29{fill:url(#SVGID_00000106862906123461078000000004926149700627814805_);}
	.st30{fill:url(#SVGID_00000081608458267972140800000006064850745566207673_);}
	.st31{fill:url(#SVGID_00000093136206467136173950000001471564972754866108_);}
	.st32{fill:url(#SVGID_00000065039121564587936350000003727253602131240881_);}
	.st33{opacity:0.18;}
	.st34{opacity:0.11;}
	.st35{opacity:0.13;}
	.st36{fill:url(#SVGID_00000126287320246078013950000008957390866662508446_);}
	.st37{fill:url(#SVGID_00000159441563279941495680000002055302848900818092_);}
	.st38{opacity:0.55;fill:#FFFFFF;}
	.st39{fill:url(#SVGID_00000174584626367291964600000011881282022802283178_);}
	.st40{fill:url(#SVGID_00000119796405964827647940000010228787106459832212_);}
	.st41{fill:url(#SVGID_00000096781570402184150630000016319023411161108865_);}
	.st42{fill:url(#SVGID_00000159461620871248478130000000873692908482184854_);}
	.st43{fill:url(#SVGID_00000155840408568615599510000016489854972326928572_);}
	.st44{fill:url(#SVGID_00000086672696905960293630000005154371741400636303_);}
	.st45{opacity:0.54;}
	.st46{opacity:0.47;clip-path:url(#SVGID_00000062889715032075180690000016809249824621927062_);}
	.st47{fill:url(#SVGID_00000090256800589854783770000004824447450785923476_);}
	.st48{fill:url(#SVGID_00000029741862695011943000000015276141379049223091_);}
	.st49{fill:url(#SVGID_00000119098521770903813330000017734533178334346408_);}
	.st50{fill:url(#SVGID_00000091005972478642167570000015722668155404788152_);}
	.st51{fill:url(#SVGID_00000005954349538525817620000009184904352693777827_);}
	.st52{fill:url(#SVGID_00000054944697249148813860000016078342963106438585_);}
	.st53{opacity:0.22;clip-path:url(#SVGID_00000137123513729026030020000013742308290056163716_);}
	.st54{fill:url(#SVGID_00000047747903631887052610000010955302790390544058_);}
	.st55{fill:url(#SVGID_00000051377842508198943750000007965895302215820172_);}
	.st56{fill:url(#SVGID_00000054259949870163659650000005192572543496416944_);}
	.st57{fill:url(#SVGID_00000138560400440873121140000012496155964880093878_);}
	.st58{opacity:0.49;fill:url(#SVGID_00000080892318217268645820000005667321282426495138_);}
	.st59{fill:url(#SVGID_00000140718781049817561370000016012048697748927623_);}
	.st60{fill:url(#SVGID_00000150781330589933251080000002634997509938218119_);}
	.st61{fill:url(#SVGID_00000151545139964833485970000010828518945192124076_);}
	.st62{fill:url(#SVGID_00000120529124902757945050000011897066192912864897_);}
	.st63{opacity:0.49;fill:url(#SVGID_00000000216436819082170810000017064840795952661892_);}
	.st64{opacity:0.39;}
	.st65{fill:#7D0D99;}
	.st66{fill:url(#SVGID_00000078005998773038761510000007050593950057311667_);}
	.st67{fill:url(#SVGID_00000013872650689683920510000011558255203155089583_);}
	.st68{fill:url(#SVGID_00000179617487338116985110000001776808083859632039_);}
	.st69{fill:url(#SVGID_00000165949470471310320770000007060599267193397152_);}
	.st70{filter:url(#Adobe_OpacityMaskFilter);}
	.st71{opacity:0.42;mask:url(#SVGID_00000006706818430832878650000009570001998065906099_);}
	.st72{fill:#020202;}
	.st73{fill:url(#SVGID_00000121262840700012087870000006167914019857168782_);}
	.st74{fill:url(#SVGID_00000065785710348942056070000017424249485468941965_);}
	.st75{filter:url(#Adobe_OpacityMaskFilter_00000181049471747844134190000017357794820496869049_);}
	.st76{opacity:0.42;mask:url(#SVGID_00000168086297724257162710000002969017111991147708_);}
	.st77{fill:url(#SVGID_00000037684011648976458170000007210551840769150856_);}
	.st78{fill:url(#SVGID_00000064339133641757947190000014366177872617322917_);}
	.st79{fill:url(#SVGID_00000015343115766296126640000017328376626418113686_);}
	.st80{fill:url(#SVGID_00000049207310304154065670000012850302300917260194_);}
	.st81{fill:url(#SVGID_00000024719069186036317440000009944984575085366450_);}
	.st82{fill:url(#SVGID_00000126293607260617381790000014087399117168991383_);}
	.st83{opacity:0.62;fill:#FFFFFF;}
	.st84{fill:none;stroke:#1F1C20;stroke-width:1.1454;stroke-linecap:round;stroke-linejoin:round;stroke-miterlimit:10;}
	
		.st85{clip-path:url(#SVGID_00000142871106040550618180000004356303198039487915_);fill:url(#SVGID_00000136383297141121740800000016140547787976598198_);}
	
		.st86{clip-path:url(#SVGID_00000142871106040550618180000004356303198039487915_);fill:url(#SVGID_00000039095362929336147990000009797493594862491320_);}
	.st87{opacity:0.29;}
	.st88{fill:url(#SVGID_00000083795944638772990730000008126183950184661916_);}
	.st89{fill:url(#SVGID_00000148662634812003024520000004377042288562154376_);}
	.st90{fill:url(#SVGID_00000121990381253860728130000001309048433345626549_);}
	.st91{fill:url(#SVGID_00000178200629567070929130000002043549788491693441_);}
	.st92{fill:url(#SVGID_00000054953932650130449720000002173785508188717716_);}
	.st93{fill:url(#SVGID_00000131361657541808084960000008772804942626669719_);}
	.st94{fill:url(#SVGID_00000119094445634235390290000017691390550983782029_);}
	.st95{fill:url(#SVGID_00000067919416376756647150000016945914395396381629_);}
	.st96{fill:url(#SVGID_00000156558847355318397000000011568015324515719050_);}
	.st97{fill:url(#SVGID_00000165917411211838623520000013436087852032601514_);}
	.st98{fill:url(#SVGID_00000034068812523641460390000004641367018822832010_);}
	.st99{fill:url(#SVGID_00000096777192706854236700000011568402009258979263_);}
	.st100{fill:#0A1E25;}
	.st101{fill:none;stroke:#000000;stroke-width:2.8648;stroke-linecap:round;stroke-linejoin:round;stroke-miterlimit:10;}
	.st102{fill:#575756;stroke:#575756;stroke-miterlimit:10;}
	.st103{fill:none;stroke:#48FF11;stroke-width:3;stroke-miterlimit:10;}
</style>
<g>
	<g>
		<g>
			<g>
				<path class="st22" d="M258.9,37.6c0,1.9-1.5,3.3-3.3,3.3c-1.9,0-3.4-1.5-3.4-3.3c0-1.8,1.5-3.3,3.4-3.3
					C257.5,34.3,258.9,35.8,258.9,37.6z M253,37.6c0,1.5,1.1,2.6,2.6,2.6c1.4,0,2.5-1.2,2.5-2.6c0-1.5-1.1-2.6-2.5-2.6
					C254.1,35,253,36.2,253,37.6z M255,39.3h-0.8V36c0.3-0.1,0.7-0.1,1.3-0.1c0.6,0,0.9,0.1,1.1,0.2c0.2,0.1,0.3,0.4,0.3,0.7
					c0,0.4-0.3,0.6-0.7,0.8v0c0.3,0.1,0.5,0.4,0.6,0.8c0.1,0.5,0.2,0.7,0.2,0.8h-0.8c-0.1-0.1-0.2-0.4-0.3-0.8
					c-0.1-0.4-0.3-0.5-0.7-0.5H255V39.3z M255.1,37.5h0.4c0.4,0,0.8-0.1,0.8-0.5c0-0.3-0.2-0.5-0.7-0.5c-0.2,0-0.3,0-0.4,0V37.5z"/>
			</g>
			<path class="st23" d="M164.2,60.3c-0.2,1.2-0.4,2.3-0.7,3.5c-1.4,5.2-5,8-10.1,9c-3.9,0.8-7.8,0.7-11.7-0.4
				c-4.9-1.4-7.7-4.7-8.6-9.6c-0.7-4.6-0.7-9.2-0.1-13.8c0.5-3.8,2.2-6.9,5.6-9c2-1.2,4.2-1.9,6.5-2.1c2.9-0.3,5.8-0.3,8.6,0.3
				c5.4,1.1,9,4.2,10.1,9.9c0.2,0.9,0.3,1.7,0.4,2.6C164.2,53.9,164.2,57.1,164.2,60.3z M157.2,55.5c-0.1-1.9-0.1-3.8-0.3-5.7
				c-0.3-2.7-1.8-4.4-4.5-5.1c-2.6-0.6-5.1-0.6-7.7,0c-2.6,0.6-4.3,2.1-4.6,4.8c-0.5,4.1-0.6,8.1,0,12.2c0.4,2.5,2,3.9,4.3,4.5
				c2.6,0.6,5.2,0.7,7.8,0.1c2.8-0.7,4.3-2.3,4.6-5.1C157.1,59.3,157.1,57.4,157.2,55.5z"/>
			<path class="st23" d="M106.1,24.4c1.8,0.4,2,1,2,2.9c0,14.1,0,28.2,0,42.3c0,0.3,0,0.5,0,0.8c-0.2,1.5-0.6,2-2.1,2.1
				c-0.9,0.1-1.8,0-2.7,0c-1.3,0-2-0.8-2.2-2c0-14.7,0-29.3,0-44c0.2-1.2,0.9-1.9,2.1-2.1C104.2,24.4,105.2,24.4,106.1,24.4z"/>
			<path class="st23" d="M127.9,72.6c-1.6-0.1-3.2,0-4.5-0.9c-0.9-0.6-1.7-1.2-2.3-2c-2.8-3.2-5.6-6.5-8.4-9.8
				c-1.7-2-2.5-4.4-2.1-7.1c0.3-1.5,1.1-2.6,2-3.7c2.3-2.7,4.7-5.3,7-8c1.6-1.9,3.7-2.9,6.2-2.8c1,0,2,0,2.9,0.1
				c1,0.1,1.3,0.6,0.6,1.4c-1,1.3-2,2.5-3.1,3.7c-2.6,2.9-5.2,5.9-7.8,8.8c-1.3,1.5-1.3,2.6,0,4.1c3.5,4,6.9,8,10.4,12.1
				c0.6,0.7,1.3,1.5,1.9,2.3c0.6,0.9,0.4,1.4-0.6,1.5C129.4,72.6,128.7,72.6,127.9,72.6z"/>
			<path class="st23" d="M174.3,24.4c1.7,0.6,1.9,0.9,2,2.7c0,4.7,0,9.3,0,14c0,0.3,0,0.5-0.1,0.6c0.7-0.5,1.3-1.1,2-1.6
				c1.8-1.4,3.9-2.1,6.1-2.2c2.7-0.2,5.3-0.1,7.9,0.7c4.2,1.3,6.8,4.2,7.8,8.4c0.4,1.7,0.7,3.5,0.7,5.2c0,3.4,0,6.7-0.3,10.1
				c-0.3,3.3-1.7,6.2-4.5,8.3c-1.9,1.4-4.1,2.2-6.4,2.5c-1.2,0.2-2.4,0.2-3.6,0.3c-0.3,0-0.5,0.1-0.8,0.1c0,0-0.1,0-0.1,0
				c-0.2,0-0.4-0.1-0.7-0.1c-1.4-0.1-2.7-0.2-4.1-0.5c-3.3-0.6-6.2-2.1-8.2-4.9c-1.4-1.9-2.1-4-2.4-6.3c-0.1-1-0.2-1.9-0.3-2.9
				c0-10.4,0-20.8,0-31.2c0-0.2,0.1-0.3,0.1-0.5c0-1.4,0.5-2.3,2-2.6C172.3,24.4,173.3,24.4,174.3,24.4z M193.5,55.5
				c0.1,0,0.1,0,0.2,0c-0.1-1.9-0.1-3.9-0.3-5.8c-0.3-2.7-1.8-4.3-4.4-5c-2.4-0.6-4.8-0.6-7.2-0.2c-1.9,0.3-3.6,1.1-4.5,2.9
				c-0.5,1-0.8,2.2-0.9,3.3c-0.1,3.1-0.1,6.2,0,9.3c0.1,3.5,1.9,5.6,5.3,6.2c2.1,0.4,4.3,0.4,6.4,0c3.6-0.6,5.3-2.5,5.4-6.1
				C193.6,58.7,193.5,57.1,193.5,55.5z"/>
			<path class="st23" d="M205.8,59.4c0-3.1,0-6.2,0-9.3c0-1.8,0.2-3.6,0.8-5.3c1-2.9,3-5,6-6c2.7-1,5.5-1.2,8.4-0.8
				c1.4,0.2,2,0.9,2,2.3c0,0.8,0,1.7,0,2.5c-0.1,1.3-0.7,1.8-2,1.7c-1.2-0.1-2.3-0.1-3.5-0.1c-1.1,0-2.1,0.3-2.9,1
				c-1.3,1-1.6,2.4-1.6,3.8c-0.1,4.2-0.1,8.4-0.1,12.6c0,2.7,0,5.4,0,8.1c0,1.9-0.7,2.5-2.6,2.6c-0.9,0-1.8,0-2.7-0.1
				c-1-0.1-1.5-0.6-1.6-1.6c-0.1-0.5-0.1-1.1-0.1-1.6C205.8,65.9,205.8,62.7,205.8,59.4z"/>
			<g id="_x34_1CmJh_00000171686771482416949370000008467221802952898485_">
				<g>
					<path class="st22" d="M224.9,64.1c0-1,0-1.9,0-2.9c0.1-0.2,0.1-0.4,0.1-0.6c0.5-3.2,2.1-5.5,5.1-6.8c1.9-0.8,3.8-1.3,5.8-1.4
						c3.2-0.1,6.5-0.1,9.8-0.1c0.2,0,0.5,0,0.7,0c0-1.3,0.1-2.5,0-3.7c-0.2-2.7-1.4-4-4.1-4.6c-2.5-0.5-5.1-0.4-7.6-0.2
						c-1.4,0.1-2.8,0.4-4.2,0.6c-1.1,0.2-1.7-0.2-1.9-1.3c-0.1-0.7-0.1-1.5-0.1-2.3c0-1.6,0.6-2.2,2.1-2.5c2.4-0.5,4.9-0.6,7.4-0.6
						c2.9,0,5.7,0.2,8.5,1.2c2.4,0.8,4.4,2.2,5.7,4.5c1,1.8,1.2,3.7,1.2,5.7c0,3.9,0,7.7,0,11.6c0,1.3,0,2.5-0.2,3.8
						c-0.4,3.2-1.9,5.7-4.9,7.2c-1.8,0.9-3.7,1.3-5.7,1.5c-1.3,0.1-2.5,0.2-3.8,0.3c0,0-0.1,0-0.1,0c-0.4,0-0.9-0.1-1.3-0.1
						c-1.7-0.2-3.4-0.3-5.1-0.7c-3.2-0.8-5.8-2.6-6.9-5.9C225.2,65.7,225.1,64.9,224.9,64.1z M246.4,57.6c-1,0-2.1,0-3.1,0
						c-2.2,0-4.4,0-6.6,0.2c-3.1,0.3-4.6,1.8-4.7,4.5c-0.1,2.2,0.8,3.7,2.9,4.4c2.8,0.9,5.7,0.8,8.5,0c1.8-0.5,2.9-1.9,3-3.7
						C246.5,61.2,246.4,59.4,246.4,57.6z"/>
				</g>
			</g>
		</g>
		<g>
			<g>
				<g>
					<polygon class="st22" points="32.3,88 51.7,88 56.4,81 27.5,81 					"/>
					<polygon class="st22" points="23.3,74.9 60.6,74.9 65.4,68 18.5,68 					"/>
					<polygon class="st22" points="42,102 47.5,94 36.5,94 					"/>
					<path class="st22" d="M21.6,45.8c-0.2-0.5-0.6-1.6-0.8-2.1c-1.2-2.1-3.5-3.5-5.9-3.5c-3.7,0-6.7,3-6.8,6.6
						c0.1,0.7,0.2,1.4,0.3,2h14.4C22.4,47.9,21.9,46.9,21.6,45.8z"/>
					<path class="st22" d="M26.3,41c0.1,0.1,0.1,0.2,0.2,0.4c0,0.1,0.6,1.7,0.9,2.6c2.1,6.4,7.9,10.7,14.6,10.7
						c6.4,0,12.2-4.2,14.6-10.8c0.3-0.7,0.8-2.3,0.8-2.3c0.1-0.2,0.1-0.3,0.2-0.5c2.2-4.2,6.6-6.9,11.4-6.9c2.4,0,4.7,0.7,6.7,1.9
						C72.9,20,58.9,7.7,42,7.7C25.2,7.7,11.2,19.9,8.4,36c1.9-1.1,4.2-1.8,6.6-1.8C19.7,34.2,24.1,36.8,26.3,41z"/>
					<path class="st22" d="M42,60.7c-5.5,0-10.7-2.1-14.5-5.7H10.3c0.6,1.6,1.4,3.1,2.3,4.4l1.7,2.5h55.3l1.8-2.6
						c0.9-1.4,1.7-2.8,2.4-4.4H56.3C52.4,58.6,47.4,60.7,42,60.7z"/>
					<path class="st22" d="M69,40.3c-2.4,0-4.7,1.3-5.9,3.4c-0.2,0.5-0.6,1.7-0.8,2.3c-0.4,1-0.8,2-1.3,3h14.6
						c0.1-0.6,0.2-1.2,0.3-1.9h-0.1C75.8,43.3,72.7,40.3,69,40.3z"/>
				</g>
				<path class="st24" d="M42,1.6C19.8,1.6,1.7,19.7,1.7,41.9c0,1.7,0.1,3.5,0.3,5.1c0,0,0,0,0,0h0c0.7,6,2.6,11.5,5.5,15.8l32,46.2
					c0.6,0.8,1.5,1.3,2.5,1.3h0c1,0,1.9-0.5,2.5-1.3l31.9-46.3c3.9-5.7,5.9-12.8,5.9-20.9C82.3,19.7,64.2,1.6,42,1.6z M42,54.6
					c-6.7,0-12.5-4.3-14.6-10.7c-0.3-0.9-0.9-2.5-0.9-2.6c0-0.1-0.1-0.2-0.2-0.4c-2.2-4.2-6.6-6.8-11.4-6.8c-2.4,0-4.6,0.7-6.6,1.8
					C11.2,19.9,25.2,7.7,42,7.7C58.9,7.7,72.9,20,75.7,36c-1.9-1.2-4.2-1.9-6.7-1.9c-4.8,0-9.2,2.6-11.4,6.9
					c-0.1,0.2-0.1,0.3-0.2,0.5c0,0-0.5,1.6-0.8,2.3C54.2,50.4,48.4,54.6,42,54.6 M8.2,46.9c0.1-3.7,3.1-6.6,6.8-6.6
					c2.5,0,4.7,1.3,5.9,3.5c0.2,0.5,0.6,1.6,0.8,2.1c0.3,1.1,0.8,2.1,1.3,3.1H8.5C8.4,48.3,8.2,47.6,8.2,46.9z M42,102l-5.5-8h11
					L42,102z M51.7,88H32.3L27.5,81h29L51.7,88z M60.6,74.9H23.3L18.5,68h46.9L60.6,74.9z M71.4,59.4l-1.8,2.6H14.3l-1.7-2.5
					c-0.9-1.3-1.7-2.8-2.3-4.4h17.2c3.9,3.6,9,5.7,14.5,5.7c5.4,0,10.4-2.1,14.3-5.7h17.4C73.1,56.6,72.3,58,71.4,59.4z M75.6,48.9
					H61c0.5-0.9,1-1.9,1.3-3c0.2-0.6,0.6-1.8,0.8-2.3c1.2-2.1,3.4-3.4,5.9-3.4c3.7,0,6.8,3,6.8,6.8h0.1
					C75.8,47.7,75.7,48.3,75.6,48.9z"/>
			</g>
			<path class="st24" d="M50.4,39.1c1.1,0,2,0.9,2,2c0,1.1-0.9,2-2,2c-1.1,0-2-0.9-2-2C48.4,40,49.3,39.1,50.4,39.1z"/>
			<path class="st24" d="M33.6,39.1c1.1,0,2,0.9,2,2c0,1.1-0.9,2-2,2c-1.1,0-2-0.9-2-2C31.6,40,32.5,39.1,33.6,39.1z"/>
		</g>
	</g>
</g>
</svg>
